<?xml version="1.0" encoding="UTF-8" standalone="no"?>
<!DOCTYPE svg PUBLIC "-//W3C//DTD SVG 1.1//EN"
 "http://www.w3.org/Graphics/SVG/1.1/DTD/svg11.dtd">
<!-- Generated by graphviz version 2.28.0 (20110509.1545)
 -->
<!-- Title: _anonymous_0 Pages: 1 -->
<svg width="2128pt" height="638pt"
 viewBox="0.00 0.00 2128.00 638.00" xmlns="http://www.w3.org/2000/svg" xmlns:xlink="http://www.w3.org/1999/xlink">
<g id="graph1" class="graph" transform="scale(1 1) rotate(0) translate(4 634)">
<title>_anonymous_0</title>
<polygon fill="white" stroke="white" points="-4,5 -4,-634 2125,-634 2125,5 -4,5"/>
<!-- org_liveSense_service_xssRemove -->
<g id="node1" class="node"><title>org_liveSense_service_xssRemove</title>
<polygon fill="yellow" stroke="black" points="1220.75,-593 1220.75,-629 1413.25,-629 1413.25,-593 1220.75,-593"/>
<text text-anchor="middle" x="1317" y="-617" font-family="Arial" font-size="8.00">liveSense :: Service :: XSS Remove</text>
<polyline fill="none" stroke="black" points="1220.75,-611.801 1413.25,-611.801 "/>
<text text-anchor="middle" x="1317" y="-599.301" font-family="Arial" font-size="8.00">org.liveSense.service.xssRemove(2&#45;SNAPSHOT)</text>
</g>
<!-- org_apache_felix_scr -->
<g id="node2" class="node"><title>org_apache_felix_scr</title>
<polygon fill="green" stroke="black" points="1956.31,-519 1956.31,-555 2093.69,-555 2093.69,-519 1956.31,-519"/>
<text text-anchor="middle" x="2025" y="-543" font-family="Arial" font-size="8.00">Apache Felix Declarative Services</text>
<polyline fill="none" stroke="black" points="1956.31,-537.801 2093.69,-537.801 "/>
<text text-anchor="middle" x="2025" y="-525.301" font-family="Arial" font-size="8.00">org.apache.felix.scr(1.6.0)</text>
</g>
<!-- org_liveSense_service_xssRemove&#45;&gt;org_apache_felix_scr -->
<g id="edge2" class="edge"><title>org_liveSense_service_xssRemove&#45;&gt;org_apache_felix_scr</title>
<path fill="none" stroke="yellow" d="M1413.59,-600.177C1554.88,-585.809 1815.26,-559.329 1945.89,-546.045"/>
<polygon fill="yellow" stroke="yellow" points="1946.62,-549.489 1956.22,-544.995 1945.91,-542.525 1946.62,-549.489"/>
</g>
<!-- javax_jcr -->
<g id="node3" class="node"><title>javax_jcr</title>
<polygon fill="green" stroke="black" points="1317.03,-519 1317.03,-555 1500.97,-555 1500.97,-519 1317.03,-519"/>
<text text-anchor="middle" x="1409" y="-543" font-family="Arial" font-size="8.00">Content Repository for JavaTM Technology API</text>
<polyline fill="none" stroke="black" points="1317.03,-537.801 1500.97,-537.801 "/>
<text text-anchor="middle" x="1409" y="-525.301" font-family="Arial" font-size="8.00">javax.jcr(2.0)</text>
</g>
<!-- org_liveSense_service_xssRemove&#45;&gt;javax_jcr -->
<g id="edge4" class="edge"><title>org_liveSense_service_xssRemove&#45;&gt;javax_jcr</title>
<path fill="none" stroke="yellow" d="M1338.8,-592.937C1350.86,-583.501 1366.02,-571.639 1379.16,-561.354"/>
<polygon fill="yellow" stroke="yellow" points="1381.32,-564.109 1387.03,-555.19 1377,-558.597 1381.32,-564.109"/>
</g>
<!-- org_apache_sling_jcr_api -->
<g id="node4" class="node"><title>org_apache_sling_jcr_api</title>
<polygon fill="green" stroke="black" points="1153.29,-519 1153.29,-555 1298.71,-555 1298.71,-519 1153.29,-519"/>
<text text-anchor="middle" x="1226" y="-543" font-family="Arial" font-size="8.00">Apache Sling Repository API Bundle</text>
<polyline fill="none" stroke="black" points="1153.29,-537.801 1298.71,-537.801 "/>
<text text-anchor="middle" x="1226" y="-525.301" font-family="Arial" font-size="8.00">org.apache.sling.jcr.api(2.1.0)</text>
</g>
<!-- org_liveSense_service_xssRemove&#45;&gt;org_apache_sling_jcr_api -->
<g id="edge6" class="edge"><title>org_liveSense_service_xssRemove&#45;&gt;org_apache_sling_jcr_api</title>
<path fill="none" stroke="yellow" d="M1295.43,-592.937C1283.62,-583.59 1268.8,-571.863 1255.89,-561.646"/>
<polygon fill="yellow" stroke="yellow" points="1257.74,-558.65 1247.73,-555.19 1253.4,-564.14 1257.74,-558.65"/>
</g>
<!-- org_apache_sling_commons_osgi -->
<g id="node5" class="node"><title>org_apache_sling_commons_osgi</title>
<polygon fill="green" stroke="black" points="1518.75,-519 1518.75,-555 1671.25,-555 1671.25,-519 1518.75,-519"/>
<text text-anchor="middle" x="1595" y="-543" font-family="Arial" font-size="8.00">Apache Sling Commons OSGi support</text>
<polyline fill="none" stroke="black" points="1518.75,-537.801 1671.25,-537.801 "/>
<text text-anchor="middle" x="1595" y="-525.301" font-family="Arial" font-size="8.00">org.apache.sling.commons.osgi(2.1.0)</text>
</g>
<!-- org_liveSense_service_xssRemove&#45;&gt;org_apache_sling_commons_osgi -->
<g id="edge8" class="edge"><title>org_liveSense_service_xssRemove&#45;&gt;org_apache_sling_commons_osgi</title>
<path fill="none" stroke="yellow" d="M1382.88,-592.937C1423.85,-582.328 1476.65,-568.651 1519.33,-557.598"/>
<polygon fill="yellow" stroke="yellow" points="1520.31,-560.961 1529.11,-555.065 1518.55,-554.184 1520.31,-560.961"/>
</g>
<!-- org_liveSense_core -->
<g id="node6" class="node"><title>org_liveSense_core</title>
<polygon fill="green" stroke="black" points="811.646,-519 811.646,-555 950.354,-555 950.354,-519 811.646,-519"/>
<text text-anchor="middle" x="881" y="-543" font-family="Arial" font-size="8.00">liveSense :: Core</text>
<polyline fill="none" stroke="black" points="811.646,-537.801 950.354,-537.801 "/>
<text text-anchor="middle" x="881" y="-525.301" font-family="Arial" font-size="8.00">org.liveSense.core(2&#45;SNAPSHOT)</text>
</g>
<!-- org_liveSense_service_xssRemove&#45;&gt;org_liveSense_core -->
<g id="edge10" class="edge"><title>org_liveSense_service_xssRemove&#45;&gt;org_liveSense_core</title>
<path fill="none" stroke="yellow" d="M1220.51,-594.066C1142.41,-581.169 1033.75,-563.224 960.572,-551.14"/>
<polygon fill="yellow" stroke="yellow" points="960.926,-547.651 950.489,-549.475 959.785,-554.558 960.926,-547.651"/>
</g>
<!-- slf4j_api -->
<g id="node7" class="node"><title>slf4j_api</title>
<polygon fill="green" stroke="black" points="1068.88,-519 1068.88,-555 1135.12,-555 1135.12,-519 1068.88,-519"/>
<text text-anchor="middle" x="1102" y="-543" font-family="Arial" font-size="8.00">slf4j&#45;api</text>
<polyline fill="none" stroke="black" points="1068.88,-537.801 1135.12,-537.801 "/>
<text text-anchor="middle" x="1102" y="-525.301" font-family="Arial" font-size="8.00">slf4j.api(1.6.1)</text>
</g>
<!-- org_liveSense_service_xssRemove&#45;&gt;slf4j_api -->
<g id="edge12" class="edge"><title>org_liveSense_service_xssRemove&#45;&gt;slf4j_api</title>
<path fill="none" stroke="yellow" d="M1257.24,-592.991C1226.04,-583.729 1187.12,-571.586 1144.96,-556.202"/>
<polygon fill="yellow" stroke="yellow" points="1145.94,-552.832 1135.35,-552.656 1143.52,-559.399 1145.94,-552.832"/>
</g>
<!-- org_apache_felix_metatype -->
<g id="node8" class="node"><title>org_apache_felix_metatype</title>
<polygon fill="#3182bd" stroke="black" points="1923.63,-149 1923.63,-185 2054.37,-185 2054.37,-149 1923.63,-149"/>
<text text-anchor="middle" x="1989" y="-173" font-family="Arial" font-size="8.00">Apache Felix Metatype Service</text>
<polyline fill="none" stroke="black" points="1923.63,-167.801 2054.37,-167.801 "/>
<text text-anchor="middle" x="1989" y="-155.301" font-family="Arial" font-size="8.00">org.apache.felix.metatype(1.0.4)</text>
</g>
<!-- org_apache_felix_scr&#45;&gt;org_apache_felix_metatype -->
<g id="edge14" class="edge"><title>org_apache_felix_scr&#45;&gt;org_apache_felix_metatype</title>
<path fill="none" stroke="green" d="M2028.75,-518.566C2034.29,-491.283 2044,-436.777 2044,-390 2044,-390 2044,-390 2044,-314 2044,-272.156 2040.09,-260.629 2024,-222 2019.88,-212.099 2013.92,-202.03 2008.09,-193.311"/>
<polygon fill="green" stroke="green" points="2010.96,-191.306 2002.38,-185.099 2005.22,-195.306 2010.96,-191.306"/>
</g>
<!-- org_apache_sling_commons_logservice -->
<g id="node9" class="node"><title>org_apache_sling_commons_logservice</title>
<polygon fill="#3182bd" stroke="black" points="1747.96,-1 1747.96,-37 1932.04,-37 1932.04,-1 1747.96,-1"/>
<text text-anchor="middle" x="1840" y="-25" font-family="Arial" font-size="8.00">Apache Sling OSGi LogService Implementation</text>
<polyline fill="none" stroke="black" points="1747.96,-19.8008 1932.04,-19.8008 "/>
<text text-anchor="middle" x="1840" y="-7.30078" font-family="Arial" font-size="8.00">org.apache.sling.commons.logservice(1.0.0)</text>
</g>
<!-- org_apache_felix_scr&#45;&gt;org_apache_sling_commons_logservice -->
<g id="edge16" class="edge"><title>org_apache_felix_scr&#45;&gt;org_apache_sling_commons_logservice</title>
<path fill="none" stroke="green" d="M2046.08,-518.589C2074.07,-493.387 2120,-443.829 2120,-390 2120,-390 2120,-390 2120,-166 2120,-83.0644 2022.22,-47.1641 1942.23,-31.6709"/>
<polygon fill="green" stroke="green" points="1942.54,-28.1694 1932.07,-29.7929 1941.27,-35.0528 1942.54,-28.1694"/>
</g>
<!-- org_apache_felix_configadmin -->
<g id="node10" class="node"><title>org_apache_felix_configadmin</title>
<polygon fill="#3182bd" stroke="black" points="1702.29,-75 1702.29,-111 1867.71,-111 1867.71,-75 1702.29,-75"/>
<text text-anchor="middle" x="1785" y="-99" font-family="Arial" font-size="8.00">Apache Felix Configuration Admin Service</text>
<polyline fill="none" stroke="black" points="1702.29,-93.8008 1867.71,-93.8008 "/>
<text text-anchor="middle" x="1785" y="-81.3008" font-family="Arial" font-size="8.00">org.apache.felix.configadmin(1.2.8)</text>
</g>
<!-- org_apache_felix_scr&#45;&gt;org_apache_felix_configadmin -->
<g id="edge18" class="edge"><title>org_apache_felix_scr&#45;&gt;org_apache_felix_configadmin</title>
<path fill="none" stroke="green" d="M2036.53,-518.869C2053.19,-492.424 2082,-439.523 2082,-390 2082,-390 2082,-390 2082,-240 2082,-198.248 2092.7,-177.348 2063,-148 2037.17,-122.472 1948.57,-108.424 1878.25,-101.108"/>
<polygon fill="green" stroke="green" points="1878.32,-97.5969 1868.02,-100.077 1877.61,-104.562 1878.32,-97.5969"/>
</g>
<!-- org_apache_sling_jcr_api&#45;&gt;javax_jcr -->
<g id="edge20" class="edge"><title>org_apache_sling_jcr_api&#45;&gt;javax_jcr</title>
<path fill="none" stroke="green" d="M1298.91,-537C1301.55,-537 1304.18,-537 1306.82,-537"/>
<polygon fill="green" stroke="green" points="1306.98,-540.5 1316.98,-537 1306.98,-533.5 1306.98,-540.5"/>
</g>
<!-- org_apache_felix_eventadmin -->
<g id="node31" class="node"><title>org_apache_felix_eventadmin</title>
<polygon fill="#bdbdbd" stroke="black" points="1872.18,-223 1872.18,-259 2015.82,-259 2015.82,-223 1872.18,-223"/>
<text text-anchor="middle" x="1944" y="-247" font-family="Arial" font-size="8.00">Apache Felix EventAdmin</text>
<polyline fill="none" stroke="black" points="1872.18,-241.801 2015.82,-241.801 "/>
<text text-anchor="middle" x="1944" y="-229.301" font-family="Arial" font-size="8.00">org.apache.felix.eventadmin(1.2.14)</text>
</g>
<!-- org_apache_sling_commons_osgi&#45;&gt;org_apache_felix_eventadmin -->
<g id="edge22" class="edge"><title>org_apache_sling_commons_osgi&#45;&gt;org_apache_felix_eventadmin</title>
<path fill="none" stroke="green" d="M1671.53,-534.261C1759.04,-530.517 1894.54,-518.766 1928,-482 1981.68,-423.013 1964.17,-318.461 1951.81,-269.161"/>
<polygon fill="green" stroke="green" points="1955.13,-268.024 1949.21,-259.242 1948.36,-269.803 1955.13,-268.024"/>
</g>
<!-- org_liveSense_core&#45;&gt;org_apache_felix_scr -->
<g id="edge24" class="edge"><title>org_liveSense_core&#45;&gt;org_apache_felix_scr</title>
<path fill="none" stroke="green" d="M950.605,-554.051C985.843,-561.825 1029.44,-570.144 1069,-574 1335.29,-599.955 1403.81,-587.926 1671,-574 1765.69,-569.065 1874.06,-556.752 1945.68,-547.679"/>
<polygon fill="green" stroke="green" points="1946.5,-551.103 1955.98,-546.365 1945.62,-544.159 1946.5,-551.103"/>
</g>
<!-- org_liveSense_core&#45;&gt;javax_jcr -->
<g id="edge30" class="edge"><title>org_liveSense_core&#45;&gt;javax_jcr</title>
<path fill="none" stroke="green" d="M950.605,-554.051C985.843,-561.825 1029.44,-570.144 1069,-574 1170.3,-583.873 1197.54,-590.303 1298,-574 1317.46,-570.842 1338.12,-564.76 1356.27,-558.426"/>
<polygon fill="green" stroke="green" points="1357.57,-561.679 1365.79,-555.001 1355.2,-555.092 1357.57,-561.679"/>
</g>
<!-- org_liveSense_core&#45;&gt;org_apache_sling_jcr_api -->
<g id="edge32" class="edge"><title>org_liveSense_core&#45;&gt;org_apache_sling_jcr_api</title>
<path fill="none" stroke="green" d="M933.79,-555.055C985.341,-570.25 1065.9,-587.511 1135,-574 1150.65,-570.94 1167.01,-565.178 1181.47,-559.097"/>
<polygon fill="green" stroke="green" points="1182.91,-562.288 1190.68,-555.079 1180.11,-555.872 1182.91,-562.288"/>
</g>
<!-- org_liveSense_core&#45;&gt;org_apache_sling_commons_osgi -->
<g id="edge34" class="edge"><title>org_liveSense_core&#45;&gt;org_apache_sling_commons_osgi</title>
<path fill="none" stroke="green" d="M950.605,-554.051C985.843,-561.825 1029.44,-570.144 1069,-574 1164.33,-583.291 1405.87,-591.684 1500,-574 1516.27,-570.944 1533.33,-565.183 1548.43,-559.102"/>
<polygon fill="green" stroke="green" points="1550.17,-562.17 1558.04,-555.084 1547.47,-555.711 1550.17,-562.17"/>
</g>
<!-- org_liveSense_core&#45;&gt;slf4j_api -->
<g id="edge46" class="edge"><title>org_liveSense_core&#45;&gt;slf4j_api</title>
<path fill="none" stroke="green" d="M950.494,-537C986.558,-537 1022.62,-537 1058.69,-537"/>
<polygon fill="green" stroke="green" points="1058.86,-540.5 1068.86,-537 1058.86,-533.5 1058.86,-540.5"/>
</g>
<!-- org_apache_jackrabbit_jackrabbit_jcr_commons -->
<g id="node11" class="node"><title>org_apache_jackrabbit_jackrabbit_jcr_commons</title>
<polygon fill="#3182bd" stroke="black" points="1701.74,-445 1701.74,-481 1902.26,-481 1902.26,-445 1701.74,-445"/>
<text text-anchor="middle" x="1802" y="-469" font-family="Arial" font-size="8.00">Jackrabbit JCR Commons</text>
<polyline fill="none" stroke="black" points="1701.74,-463.801 1902.26,-463.801 "/>
<text text-anchor="middle" x="1802" y="-451.301" font-family="Arial" font-size="8.00">org.apache.jackrabbit.jackrabbit&#45;jcr&#45;commons(2.4.0)</text>
</g>
<!-- org_liveSense_core&#45;&gt;org_apache_jackrabbit_jackrabbit_jcr_commons -->
<g id="edge26" class="edge"><title>org_liveSense_core&#45;&gt;org_apache_jackrabbit_jackrabbit_jcr_commons</title>
<path fill="none" stroke="green" d="M950.664,-528.544C983.768,-525.117 1023.9,-521.128 1060,-518 1283.99,-498.591 1546.44,-480.61 1691.48,-471.088"/>
<polygon fill="green" stroke="green" points="1691.97,-474.564 1701.72,-470.418 1691.51,-467.579 1691.97,-474.564"/>
</g>
<!-- org_apache_commons_beanutils -->
<g id="node12" class="node"><title>org_apache_commons_beanutils</title>
<polygon fill="#3182bd" stroke="black" points="152.852,-445 152.852,-481 303.148,-481 303.148,-445 152.852,-445"/>
<text text-anchor="middle" x="228" y="-469" font-family="Arial" font-size="8.00">Commons BeanUtils</text>
<polyline fill="none" stroke="black" points="152.852,-463.801 303.148,-463.801 "/>
<text text-anchor="middle" x="228" y="-451.301" font-family="Arial" font-size="8.00">org.apache.commons.beanutils(1.8.3)</text>
</g>
<!-- org_liveSense_core&#45;&gt;org_apache_commons_beanutils -->
<g id="edge28" class="edge"><title>org_liveSense_core&#45;&gt;org_apache_commons_beanutils</title>
<path fill="none" stroke="green" d="M811.483,-532.021C705.838,-525.395 498.435,-510.123 313.39,-482.123"/>
<polygon fill="green" stroke="green" points="313.894,-478.659 303.479,-480.608 312.836,-485.579 313.894,-478.659"/>
</g>
<!-- net_entropysoft_transmorph -->
<g id="node13" class="node"><title>net_entropysoft_transmorph</title>
<polygon fill="#3182bd" stroke="black" points="-0.363281,-445 -0.363281,-481 134.363,-481 134.363,-445 -0.363281,-445"/>
<text text-anchor="middle" x="67" y="-469" font-family="Arial" font-size="8.00">Transmorph</text>
<polyline fill="none" stroke="black" points="-0.363281,-463.801 134.363,-463.801 "/>
<text text-anchor="middle" x="67" y="-451.301" font-family="Arial" font-size="8.00">net.entropysoft.transmorph(3.1.1)</text>
</g>
<!-- org_liveSense_core&#45;&gt;net_entropysoft_transmorph -->
<g id="edge38" class="edge"><title>org_liveSense_core&#45;&gt;net_entropysoft_transmorph</title>
<path fill="none" stroke="green" d="M811.501,-534.528C682.046,-530.997 395.2,-519.459 144.517,-481.925"/>
<polygon fill="green" stroke="green" points="144.901,-478.443 134.49,-480.407 143.853,-485.365 144.901,-478.443"/>
</g>
<!-- com_google_guava -->
<g id="node14" class="node"><title>com_google_guava</title>
<polygon fill="#3182bd" stroke="black" points="320.85,-445 320.85,-481 487.15,-481 487.15,-445 320.85,-445"/>
<text text-anchor="middle" x="404" y="-469" font-family="Arial" font-size="8.00">Guava: Google Core Libraries for Java 1.5</text>
<polyline fill="none" stroke="black" points="320.85,-463.801 487.15,-463.801 "/>
<text text-anchor="middle" x="404" y="-451.301" font-family="Arial" font-size="8.00">com.google.guava(10.0.0)</text>
</g>
<!-- org_liveSense_core&#45;&gt;com_google_guava -->
<g id="edge40" class="edge"><title>org_liveSense_core&#45;&gt;com_google_guava</title>
<path fill="none" stroke="green" d="M811.465,-527.316C736.598,-517.719 613.766,-501.26 497.741,-482.078"/>
<polygon fill="green" stroke="green" points="498.054,-478.582 487.615,-480.394 496.905,-485.487 498.054,-478.582"/>
</g>
<!-- org_apache_commons_lang -->
<g id="node15" class="node"><title>org_apache_commons_lang</title>
<polygon fill="#3182bd" stroke="black" points="505.637,-445 505.637,-481 632.363,-481 632.363,-445 505.637,-445"/>
<text text-anchor="middle" x="569" y="-469" font-family="Arial" font-size="8.00">Commons Lang</text>
<polyline fill="none" stroke="black" points="505.637,-463.801 632.363,-463.801 "/>
<text text-anchor="middle" x="569" y="-451.301" font-family="Arial" font-size="8.00">org.apache.commons.lang(2.5)</text>
</g>
<!-- org_liveSense_core&#45;&gt;org_apache_commons_lang -->
<g id="edge44" class="edge"><title>org_liveSense_core&#45;&gt;org_apache_commons_lang</title>
<path fill="none" stroke="green" d="M811.576,-520.12C764.781,-509.398 701.666,-494.902 646,-482 644.759,-481.712 643.506,-481.422 642.245,-481.129"/>
<polygon fill="green" stroke="green" points="642.977,-477.706 632.445,-478.851 641.393,-484.524 642.977,-477.706"/>
</g>
<!-- org_apache_felix_http_jetty -->
<g id="node21" class="node"><title>org_apache_felix_http_jetty</title>
<polygon fill="#bdbdbd" stroke="black" points="1321.97,-149 1321.97,-185 1450.03,-185 1450.03,-149 1321.97,-149"/>
<text text-anchor="middle" x="1386" y="-173" font-family="Arial" font-size="8.00">Apache Felix Http Jetty</text>
<polyline fill="none" stroke="black" points="1321.97,-167.801 1450.03,-167.801 "/>
<text text-anchor="middle" x="1386" y="-155.301" font-family="Arial" font-size="8.00">org.apache.felix.http.jetty(2.2.0)</text>
</g>
<!-- org_liveSense_core&#45;&gt;org_apache_felix_http_jetty -->
<g id="edge36" class="edge"><title>org_liveSense_core&#45;&gt;org_apache_felix_http_jetty</title>
<path fill="none" stroke="green" d="M844.035,-518.805C801.075,-495.969 736,-451.266 736,-390 736,-390 736,-390 736,-314 736,-272.248 723.784,-249.726 755,-222 795.848,-185.719 1153.64,-173.224 1311.6,-169.45"/>
<polygon fill="green" stroke="green" points="1311.79,-172.947 1321.71,-169.214 1311.63,-165.949 1311.79,-172.947"/>
</g>
<!-- org_apache_sling_api -->
<g id="node28" class="node"><title>org_apache_sling_api</title>
<polygon fill="#bdbdbd" stroke="black" points="763.637,-223 763.637,-259 874.363,-259 874.363,-223 763.637,-223"/>
<text text-anchor="middle" x="819" y="-247" font-family="Arial" font-size="8.00">Apache Sling API</text>
<polyline fill="none" stroke="black" points="763.637,-241.801 874.363,-241.801 "/>
<text text-anchor="middle" x="819" y="-229.301" font-family="Arial" font-size="8.00">org.apache.sling.api(2.2.4)</text>
</g>
<!-- org_liveSense_core&#45;&gt;org_apache_sling_api -->
<g id="edge42" class="edge"><title>org_liveSense_core&#45;&gt;org_apache_sling_api</title>
<path fill="none" stroke="green" d="M867.962,-518.963C860.866,-508.784 852.616,-495.284 848,-482 822.358,-408.2 818.674,-314.827 818.572,-269.369"/>
<polygon fill="green" stroke="green" points="822.073,-269.152 818.61,-259.139 815.073,-269.126 822.073,-269.152"/>
</g>
<!-- ch_qos_logback_classic -->
<g id="node19" class="node"><title>ch_qos_logback_classic</title>
<polygon fill="#bdbdbd" stroke="black" points="1042.64,-445 1042.64,-481 1161.36,-481 1161.36,-445 1042.64,-445"/>
<text text-anchor="middle" x="1102" y="-469" font-family="Arial" font-size="8.00">Logback Classic Module</text>
<polyline fill="none" stroke="black" points="1042.64,-463.801 1161.36,-463.801 "/>
<text text-anchor="middle" x="1102" y="-451.301" font-family="Arial" font-size="8.00">ch.qos.logback.classic(1.0.3)</text>
</g>
<!-- slf4j_api&#45;&gt;ch_qos_logback_classic -->
<g id="edge64" class="edge"><title>slf4j_api&#45;&gt;ch_qos_logback_classic</title>
<path fill="none" stroke="#deebf7" d="M1096.16,-518.937C1095.3,-510.807 1095.05,-500.876 1095.41,-491.705"/>
<polygon fill="#deebf7" stroke="#deebf7" points="1098.92,-491.658 1096.12,-481.441 1091.94,-491.176 1098.92,-491.658"/>
</g>
<!-- org_apache_felix_metatype&#45;&gt;org_apache_sling_commons_logservice -->
<g id="edge48" class="edge"><title>org_apache_felix_metatype&#45;&gt;org_apache_sling_commons_logservice</title>
<path fill="none" stroke="#3182bd" d="M1975.97,-148.802C1961.04,-129.597 1935.35,-98.0553 1910,-74 1898.51,-63.0984 1884.91,-52.2118 1872.77,-43.0992"/>
<polygon fill="#3182bd" stroke="#3182bd" points="1874.76,-40.2206 1864.64,-37.0956 1870.6,-45.8516 1874.76,-40.2206"/>
</g>
<!-- org_apache_sling_commons_logservice&#45;&gt;slf4j_api -->
<g id="edge58" class="edge"><title>org_apache_sling_commons_logservice&#45;&gt;slf4j_api</title>
<path fill="none" stroke="#9ecae1" d="M1747.51,-22.1474C1475.64,-29.6768 698,-60.4396 698,-166 698,-390 698,-390 698,-390 698,-466.054 954.439,-513.595 1058.7,-529.781"/>
<polygon fill="#9ecae1" stroke="#9ecae1" points="1058.18,-533.243 1068.6,-531.294 1059.24,-526.323 1058.18,-533.243"/>
</g>
<!-- org_apache_felix_configadmin&#45;&gt;org_apache_sling_commons_logservice -->
<g id="edge108" class="edge"><title>org_apache_felix_configadmin&#45;&gt;org_apache_sling_commons_logservice</title>
<path fill="none" stroke="#bdbdbd" d="M1798.03,-74.937C1804.72,-66.1886 1812.99,-55.3545 1820.42,-45.6256"/>
<polygon fill="#bdbdbd" stroke="#bdbdbd" points="1823.39,-47.5121 1826.68,-37.4407 1817.83,-43.2627 1823.39,-47.5121"/>
</g>
<!-- org_apache_jackrabbit_jackrabbit_jcr_commons&#45;&gt;javax_jcr -->
<g id="edge50" class="edge"><title>org_apache_jackrabbit_jackrabbit_jcr_commons&#45;&gt;javax_jcr</title>
<path fill="none" stroke="#3182bd" d="M1709.07,-481.025C1649.6,-491.92 1572.41,-506.063 1511.21,-517.275"/>
<polygon fill="#3182bd" stroke="#3182bd" points="1510.35,-513.874 1501.14,-519.119 1511.61,-520.76 1510.35,-513.874"/>
</g>
<!-- org_apache_jackrabbit_jackrabbit_api -->
<g id="node16" class="node"><title>org_apache_jackrabbit_jackrabbit_api</title>
<polygon fill="#9ecae1" stroke="black" points="1746.29,-371 1746.29,-407 1911.71,-407 1911.71,-371 1746.29,-371"/>
<text text-anchor="middle" x="1829" y="-395" font-family="Arial" font-size="8.00">Apache Jackrabbit API</text>
<polyline fill="none" stroke="black" points="1746.29,-389.801 1911.71,-389.801 "/>
<text text-anchor="middle" x="1829" y="-377.301" font-family="Arial" font-size="8.00">org.apache.jackrabbit.jackrabbit&#45;api(2.4.0)</text>
</g>
<!-- org_apache_jackrabbit_jackrabbit_jcr_commons&#45;&gt;org_apache_jackrabbit_jackrabbit_api -->
<g id="edge52" class="edge"><title>org_apache_jackrabbit_jackrabbit_jcr_commons&#45;&gt;org_apache_jackrabbit_jackrabbit_api</title>
<path fill="none" stroke="#3182bd" d="M1808.4,-444.937C1811.55,-436.542 1815.42,-426.227 1818.95,-416.81"/>
<polygon fill="#3182bd" stroke="#3182bd" points="1822.23,-418.033 1822.46,-407.441 1815.67,-415.575 1822.23,-418.033"/>
</g>
<!-- org_apache_commons_collections -->
<g id="node17" class="node"><title>org_apache_commons_collections</title>
<polygon fill="#9ecae1" stroke="black" points="150.188,-371 150.188,-407 305.812,-407 305.812,-371 150.188,-371"/>
<text text-anchor="middle" x="228" y="-395" font-family="Arial" font-size="8.00">Commons Collections</text>
<polyline fill="none" stroke="black" points="150.188,-389.801 305.812,-389.801 "/>
<text text-anchor="middle" x="228" y="-377.301" font-family="Arial" font-size="8.00">org.apache.commons.collections(3.2.1)</text>
</g>
<!-- org_apache_commons_beanutils&#45;&gt;org_apache_commons_collections -->
<g id="edge54" class="edge"><title>org_apache_commons_beanutils&#45;&gt;org_apache_commons_collections</title>
<path fill="none" stroke="#3182bd" d="M228,-444.937C228,-436.807 228,-426.876 228,-417.705"/>
<polygon fill="#3182bd" stroke="#3182bd" points="231.5,-417.441 228,-407.441 224.5,-417.441 231.5,-417.441"/>
</g>
<!-- jcl_over_slf4j -->
<g id="node18" class="node"><title>jcl_over_slf4j</title>
<polygon fill="#9ecae1" stroke="black" points="456.766,-371 456.766,-407 537.234,-407 537.234,-371 456.766,-371"/>
<text text-anchor="middle" x="497" y="-395" font-family="Arial" font-size="8.00">jcl&#45;over&#45;slf4j</text>
<polyline fill="none" stroke="black" points="456.766,-389.801 537.234,-389.801 "/>
<text text-anchor="middle" x="497" y="-377.301" font-family="Arial" font-size="8.00">jcl.over.slf4j(1.6.1)</text>
</g>
<!-- org_apache_commons_beanutils&#45;&gt;jcl_over_slf4j -->
<g id="edge56" class="edge"><title>org_apache_commons_beanutils&#45;&gt;jcl_over_slf4j</title>
<path fill="none" stroke="#3182bd" d="M291.749,-444.937C339.171,-432.244 402.995,-415.161 446.813,-403.433"/>
<polygon fill="#3182bd" stroke="#3182bd" points="447.916,-406.761 456.671,-400.794 446.106,-399.999 447.916,-406.761"/>
</g>
<!-- org_apache_jackrabbit_jackrabbit_api&#45;&gt;javax_jcr -->
<g id="edge60" class="edge"><title>org_apache_jackrabbit_jackrabbit_api&#45;&gt;javax_jcr</title>
<path fill="none" stroke="#9ecae1" d="M1870.78,-407.027C1886.31,-415.65 1902.27,-427.793 1911,-444 1919.01,-458.868 1922.4,-469.535 1911,-482 1882.35,-513.34 1586.73,-512.276 1511.29,-518.218"/>
<polygon fill="#9ecae1" stroke="#9ecae1" points="1510.75,-514.755 1501.15,-519.238 1511.45,-521.72 1510.75,-514.755"/>
</g>
<!-- jcl_over_slf4j&#45;&gt;slf4j_api -->
<g id="edge62" class="edge"><title>jcl_over_slf4j&#45;&gt;slf4j_api</title>
<path fill="none" stroke="#9ecae1" d="M537.274,-400.777C567.179,-409.784 608.277,-424.329 641,-444 662.859,-457.14 660.776,-471.458 684,-482 686.131,-482.967 952.072,-516.909 1058.6,-530.477"/>
<polygon fill="#9ecae1" stroke="#9ecae1" points="1058.34,-533.971 1068.7,-531.763 1059.22,-527.028 1058.34,-533.971"/>
</g>
<!-- ch_qos_logback_classic&#45;&gt;slf4j_api -->
<g id="edge70" class="edge"><title>ch_qos_logback_classic&#45;&gt;slf4j_api</title>
<path fill="none" stroke="#bdbdbd" d="M1107.88,-481.441C1108.72,-489.625 1108.95,-499.572 1108.57,-508.719"/>
<polygon fill="#bdbdbd" stroke="#bdbdbd" points="1105.06,-508.713 1107.84,-518.937 1112.04,-509.212 1105.06,-508.713"/>
</g>
<!-- ch_qos_logback_core -->
<g id="node20" class="node"><title>ch_qos_logback_core</title>
<polygon fill="#bdbdbd" stroke="black" points="1208.86,-371 1208.86,-407 1319.14,-407 1319.14,-371 1208.86,-371"/>
<text text-anchor="middle" x="1264" y="-395" font-family="Arial" font-size="8.00">Logback Core Module</text>
<polyline fill="none" stroke="black" points="1208.86,-389.801 1319.14,-389.801 "/>
<text text-anchor="middle" x="1264" y="-377.301" font-family="Arial" font-size="8.00">ch.qos.logback.core(1.0.3)</text>
</g>
<!-- ch_qos_logback_classic&#45;&gt;ch_qos_logback_core -->
<g id="edge66" class="edge"><title>ch_qos_logback_classic&#45;&gt;ch_qos_logback_core</title>
<path fill="none" stroke="#bdbdbd" d="M1140.39,-444.937C1163.11,-434.841 1192.07,-421.968 1216.25,-411.221"/>
<polygon fill="#bdbdbd" stroke="#bdbdbd" points="1217.89,-414.325 1225.6,-407.065 1215.04,-407.928 1217.89,-414.325"/>
</g>
<!-- ch_qos_logback_classic&#45;&gt;org_apache_felix_http_jetty -->
<g id="edge68" class="edge"><title>ch_qos_logback_classic&#45;&gt;org_apache_felix_http_jetty</title>
<path fill="none" stroke="#bdbdbd" d="M1075.15,-444.881C1014.01,-403.897 874.763,-297.91 942,-222 966.045,-194.853 1191.42,-178.571 1311.49,-171.753"/>
<polygon fill="#bdbdbd" stroke="#bdbdbd" points="1311.93,-175.234 1321.72,-171.181 1311.54,-168.245 1311.93,-175.234"/>
</g>
<!-- groovy_all -->
<g id="node22" class="node"><title>groovy_all</title>
<polygon fill="#bdbdbd" stroke="black" points="1065.1,-371 1065.1,-407 1138.9,-407 1138.9,-371 1065.1,-371"/>
<text text-anchor="middle" x="1102" y="-395" font-family="Arial" font-size="8.00">Groovy Runtime</text>
<polyline fill="none" stroke="black" points="1065.1,-389.801 1138.9,-389.801 "/>
<text text-anchor="middle" x="1102" y="-377.301" font-family="Arial" font-size="8.00">groovy&#45;all(1.8.2)</text>
</g>
<!-- ch_qos_logback_classic&#45;&gt;groovy_all -->
<g id="edge72" class="edge"><title>ch_qos_logback_classic&#45;&gt;groovy_all</title>
<path fill="none" stroke="#bdbdbd" d="M1102,-444.937C1102,-436.807 1102,-426.876 1102,-417.705"/>
<polygon fill="#bdbdbd" stroke="#bdbdbd" points="1105.5,-417.441 1102,-407.441 1098.5,-417.441 1105.5,-417.441"/>
</g>
<!-- ch_qos_logback_core&#45;&gt;org_apache_felix_http_jetty -->
<g id="edge76" class="edge"><title>ch_qos_logback_core&#45;&gt;org_apache_felix_http_jetty</title>
<path fill="none" stroke="#bdbdbd" d="M1263.05,-370.743C1262.87,-350.605 1265.57,-317.349 1283,-296 1308.69,-264.539 1341.31,-291.461 1367,-260 1381.78,-241.903 1385.97,-215.252 1386.79,-195.286"/>
<polygon fill="#bdbdbd" stroke="#bdbdbd" points="1390.29,-195.312 1386.95,-185.257 1383.29,-195.2 1390.29,-195.312"/>
</g>
<!-- org_glassfish_javax_mail -->
<g id="node23" class="node"><title>org_glassfish_javax_mail</title>
<polygon fill="#bdbdbd" stroke="black" points="1291.75,-297 1291.75,-333 1444.25,-333 1444.25,-297 1291.75,-297"/>
<text text-anchor="middle" x="1368" y="-321" font-family="Arial" font-size="8.00">javax.mail API v.1.4</text>
<polyline fill="none" stroke="black" points="1291.75,-315.801 1444.25,-315.801 "/>
<text text-anchor="middle" x="1368" y="-303.301" font-family="Arial" font-size="8.00">org.glassfish.javax.mail(3.0.0.Preview)</text>
</g>
<!-- ch_qos_logback_core&#45;&gt;org_glassfish_javax_mail -->
<g id="edge74" class="edge"><title>ch_qos_logback_core&#45;&gt;org_glassfish_javax_mail</title>
<path fill="none" stroke="#bdbdbd" d="M1288.65,-370.937C1302.4,-361.412 1319.73,-349.415 1334.69,-339.063"/>
<polygon fill="#bdbdbd" stroke="#bdbdbd" points="1336.94,-341.76 1343.17,-333.19 1332.96,-336.004 1336.94,-341.76"/>
</g>
<!-- org_apache_felix_http_jetty&#45;&gt;slf4j_api -->
<g id="edge86" class="edge"><title>org_apache_felix_http_jetty&#45;&gt;slf4j_api</title>
<path fill="none" stroke="#bdbdbd" d="M1450.32,-171.298C1566.05,-177.893 1799.67,-194.486 1824,-222 1835.19,-234.652 1832.88,-245.633 1824,-260 1697.45,-464.757 1561.7,-416.77 1330,-482 1251.96,-503.971 1226.38,-494.084 1144.91,-518.07"/>
<polygon fill="#bdbdbd" stroke="#bdbdbd" points="1143.79,-514.751 1135.23,-520.998 1145.81,-521.451 1143.79,-514.751"/>
</g>
<!-- org_apache_felix_http_jetty&#45;&gt;org_apache_sling_commons_logservice -->
<g id="edge84" class="edge"><title>org_apache_felix_http_jetty&#45;&gt;org_apache_sling_commons_logservice</title>
<path fill="none" stroke="#bdbdbd" d="M1438.97,-148.966C1523.26,-121.859 1687.57,-69.0205 1777.49,-40.1015"/>
<polygon fill="#bdbdbd" stroke="#bdbdbd" points="1778.57,-43.4315 1787.02,-37.038 1776.43,-36.7676 1778.57,-43.4315"/>
</g>
<!-- org_apache_felix_http_jetty&#45;&gt;org_apache_felix_configadmin -->
<g id="edge88" class="edge"><title>org_apache_felix_http_jetty&#45;&gt;org_apache_felix_configadmin</title>
<path fill="none" stroke="#bdbdbd" d="M1450.11,-154.432C1515.43,-142.644 1617.43,-124.237 1691.71,-110.834"/>
<polygon fill="#bdbdbd" stroke="#bdbdbd" points="1692.78,-114.198 1702,-108.978 1691.54,-107.309 1692.78,-114.198"/>
</g>
<!-- groovy_all&#45;&gt;org_apache_felix_http_jetty -->
<g id="edge80" class="edge"><title>groovy_all&#45;&gt;org_apache_felix_http_jetty</title>
<path fill="none" stroke="#bdbdbd" d="M1064.73,-374.471C1043.81,-365.462 1018.31,-351.962 1000,-334 962.162,-296.876 923.948,-261.764 959,-222 981.903,-196.019 1195.6,-179.347 1311.72,-172.127"/>
<polygon fill="#bdbdbd" stroke="#bdbdbd" points="1312.19,-175.605 1321.96,-171.499 1311.76,-168.618 1312.19,-175.605"/>
</g>
<!-- org_apache_servicemix_bundles_xstream -->
<g id="node24" class="node"><title>org_apache_servicemix_bundles_xstream</title>
<polygon fill="#bdbdbd" stroke="black" points="1008.63,-297 1008.63,-333 1195.37,-333 1195.37,-297 1008.63,-297"/>
<text text-anchor="middle" x="1102" y="-321" font-family="Arial" font-size="8.00">Apache ServiceMix :: Bundles :: xstream</text>
<polyline fill="none" stroke="black" points="1008.63,-315.801 1195.37,-315.801 "/>
<text text-anchor="middle" x="1102" y="-303.301" font-family="Arial" font-size="8.00">org.apache.servicemix.bundles.xstream(1.4.1.1)</text>
</g>
<!-- groovy_all&#45;&gt;org_apache_servicemix_bundles_xstream -->
<g id="edge78" class="edge"><title>groovy_all&#45;&gt;org_apache_servicemix_bundles_xstream</title>
<path fill="none" stroke="#bdbdbd" d="M1102,-370.937C1102,-362.807 1102,-352.876 1102,-343.705"/>
<polygon fill="#bdbdbd" stroke="#bdbdbd" points="1105.5,-343.441 1102,-333.441 1098.5,-343.441 1105.5,-343.441"/>
</g>
<!-- org_apache_sling_scripting_jsp -->
<g id="node25" class="node"><title>org_apache_sling_scripting_jsp</title>
<polygon fill="#bdbdbd" stroke="black" points="1462.63,-297 1462.63,-333 1609.37,-333 1609.37,-297 1462.63,-297"/>
<text text-anchor="middle" x="1536" y="-321" font-family="Arial" font-size="8.00">Apache Sling Scripting JSP Support</text>
<polyline fill="none" stroke="black" points="1462.63,-315.801 1609.37,-315.801 "/>
<text text-anchor="middle" x="1536" y="-303.301" font-family="Arial" font-size="8.00">org.apache.sling.scripting.jsp(2.0.24)</text>
</g>
<!-- groovy_all&#45;&gt;org_apache_sling_scripting_jsp -->
<g id="edge82" class="edge"><title>groovy_all&#45;&gt;org_apache_sling_scripting_jsp</title>
<path fill="none" stroke="#bdbdbd" d="M1139.17,-380.809C1157.46,-377.363 1179.85,-373.282 1200,-370 1308.92,-352.255 1339.49,-353.934 1452.22,-334.068"/>
<polygon fill="#bdbdbd" stroke="#bdbdbd" points="1453.06,-337.474 1462.29,-332.275 1451.83,-330.582 1453.06,-337.474"/>
</g>
<!-- org_apache_servicemix_bundles_xpp3 -->
<g id="node26" class="node"><title>org_apache_servicemix_bundles_xpp3</title>
<polygon fill="#bdbdbd" stroke="black" points="1169.73,-223 1169.73,-259 1358.27,-259 1358.27,-223 1169.73,-223"/>
<text text-anchor="middle" x="1264" y="-247" font-family="Arial" font-size="8.00">Apache ServiceMix :: Bundles :: xpp3</text>
<polyline fill="none" stroke="black" points="1169.73,-241.801 1358.27,-241.801 "/>
<text text-anchor="middle" x="1264" y="-229.301" font-family="Arial" font-size="8.00">org.apache.servicemix.bundles.xpp3(1.1.0.4c_5)</text>
</g>
<!-- org_apache_servicemix_bundles_xstream&#45;&gt;org_apache_servicemix_bundles_xpp3 -->
<g id="edge90" class="edge"><title>org_apache_servicemix_bundles_xstream&#45;&gt;org_apache_servicemix_bundles_xpp3</title>
<path fill="none" stroke="#bdbdbd" d="M1140.39,-296.937C1163.11,-286.841 1192.07,-273.968 1216.25,-263.221"/>
<polygon fill="#bdbdbd" stroke="#bdbdbd" points="1217.89,-266.325 1225.6,-259.065 1215.04,-259.928 1217.89,-266.325"/>
</g>
<!-- org_apache_servicemix_bundles_cglib -->
<g id="node27" class="node"><title>org_apache_servicemix_bundles_cglib</title>
<polygon fill="#bdbdbd" stroke="black" points="968.176,-223 968.176,-259 1151.82,-259 1151.82,-223 968.176,-223"/>
<text text-anchor="middle" x="1060" y="-247" font-family="Arial" font-size="8.00">Apache ServiceMix Bundles: cglib&#45;2.1_3</text>
<polyline fill="none" stroke="black" points="968.176,-241.801 1151.82,-241.801 "/>
<text text-anchor="middle" x="1060" y="-229.301" font-family="Arial" font-size="8.00">org.apache.servicemix.bundles.cglib(2.1.0.3_4)</text>
</g>
<!-- org_apache_servicemix_bundles_xstream&#45;&gt;org_apache_servicemix_bundles_cglib -->
<g id="edge92" class="edge"><title>org_apache_servicemix_bundles_xstream&#45;&gt;org_apache_servicemix_bundles_cglib</title>
<path fill="none" stroke="#bdbdbd" d="M1092.05,-296.937C1087.05,-288.365 1080.88,-277.791 1075.29,-268.217"/>
<polygon fill="#bdbdbd" stroke="#bdbdbd" points="1078.24,-266.315 1070.17,-259.441 1072.19,-269.842 1078.24,-266.315"/>
</g>
<!-- org_apache_sling_scripting_jsp&#45;&gt;org_apache_felix_scr -->
<g id="edge94" class="edge"><title>org_apache_sling_scripting_jsp&#45;&gt;org_apache_felix_scr</title>
<path fill="none" stroke="#bdbdbd" d="M1609.66,-319.066C1706.47,-324.318 1870.09,-337.777 1920,-370 1971.33,-403.135 2002.24,-471.193 2016.17,-509.065"/>
<polygon fill="#bdbdbd" stroke="#bdbdbd" points="2013.01,-510.636 2019.65,-518.892 2019.61,-508.298 2013.01,-510.636"/>
</g>
<!-- org_apache_sling_scripting_jsp&#45;&gt;slf4j_api -->
<g id="edge104" class="edge"><title>org_apache_sling_scripting_jsp&#45;&gt;slf4j_api</title>
<path fill="none" stroke="#bdbdbd" d="M1502.25,-333.107C1424,-372.776 1230.29,-470.968 1144.3,-514.56"/>
<polygon fill="#bdbdbd" stroke="#bdbdbd" points="1142.67,-511.459 1135.33,-519.102 1145.84,-517.703 1142.67,-511.459"/>
</g>
<!-- org_apache_sling_scripting_jsp&#45;&gt;org_apache_felix_http_jetty -->
<g id="edge100" class="edge"><title>org_apache_sling_scripting_jsp&#45;&gt;org_apache_felix_http_jetty</title>
<path fill="none" stroke="#bdbdbd" d="M1497.38,-296.993C1479.44,-287.811 1458.67,-275.224 1443,-260 1423.55,-241.095 1407.91,-214.252 1397.96,-194.438"/>
<polygon fill="#bdbdbd" stroke="#bdbdbd" points="1401.06,-192.81 1393.55,-185.341 1394.77,-195.866 1401.06,-192.81"/>
</g>
<!-- org_apache_sling_scripting_jsp&#45;&gt;org_apache_sling_api -->
<g id="edge96" class="edge"><title>org_apache_sling_scripting_jsp&#45;&gt;org_apache_sling_api</title>
<path fill="none" stroke="#bdbdbd" d="M1462.33,-297.46C1459.19,-296.932 1456.06,-296.442 1453,-296 1235.11,-264.594 1178.03,-282.045 959,-260 934.681,-257.552 908.06,-254.28 884.623,-251.196"/>
<polygon fill="#bdbdbd" stroke="#bdbdbd" points="884.819,-247.692 874.445,-249.843 883.897,-254.631 884.819,-247.692"/>
</g>
<!-- org_apache_sling_commons_classloader -->
<g id="node29" class="node"><title>org_apache_sling_commons_classloader</title>
<polygon fill="#bdbdbd" stroke="black" points="1638.29,-223 1638.29,-259 1815.71,-259 1815.71,-223 1638.29,-223"/>
<text text-anchor="middle" x="1727" y="-247" font-family="Arial" font-size="8.00">Apache Sling Dynamic Class Loader Support</text>
<polyline fill="none" stroke="black" points="1638.29,-241.801 1815.71,-241.801 "/>
<text text-anchor="middle" x="1727" y="-229.301" font-family="Arial" font-size="8.00">org.apache.sling.commons.classloader(1.3.0)</text>
</g>
<!-- org_apache_sling_scripting_jsp&#45;&gt;org_apache_sling_commons_classloader -->
<g id="edge98" class="edge"><title>org_apache_sling_scripting_jsp&#45;&gt;org_apache_sling_commons_classloader</title>
<path fill="none" stroke="#bdbdbd" d="M1581.26,-296.937C1608.52,-286.663 1643.41,-273.511 1672.21,-262.652"/>
<polygon fill="#bdbdbd" stroke="#bdbdbd" points="1673.61,-265.868 1681.73,-259.065 1671.14,-259.317 1673.61,-265.868"/>
</g>
<!-- org_apache_sling_scripting_api -->
<g id="node30" class="node"><title>org_apache_sling_scripting_api</title>
<polygon fill="#bdbdbd" stroke="black" points="1451.96,-223 1451.96,-259 1620.04,-259 1620.04,-223 1451.96,-223"/>
<text text-anchor="middle" x="1536" y="-247" font-family="Arial" font-size="8.00">Apache Sling Scripting Implementation API</text>
<polyline fill="none" stroke="black" points="1451.96,-241.801 1620.04,-241.801 "/>
<text text-anchor="middle" x="1536" y="-229.301" font-family="Arial" font-size="8.00">org.apache.sling.scripting.api(2.1.4)</text>
</g>
<!-- org_apache_sling_scripting_jsp&#45;&gt;org_apache_sling_scripting_api -->
<g id="edge102" class="edge"><title>org_apache_sling_scripting_jsp&#45;&gt;org_apache_sling_scripting_api</title>
<path fill="none" stroke="#bdbdbd" d="M1536,-296.937C1536,-288.807 1536,-278.876 1536,-269.705"/>
<polygon fill="#bdbdbd" stroke="#bdbdbd" points="1539.5,-269.441 1536,-259.441 1532.5,-269.441 1539.5,-269.441"/>
</g>
<!-- org_apache_sling_scripting_jsp&#45;&gt;org_apache_felix_eventadmin -->
<g id="edge106" class="edge"><title>org_apache_sling_scripting_jsp&#45;&gt;org_apache_felix_eventadmin</title>
<path fill="none" stroke="#bdbdbd" d="M1609.41,-301.045C1680.41,-288.516 1787.8,-269.564 1861.67,-256.529"/>
<polygon fill="#bdbdbd" stroke="#bdbdbd" points="1862.62,-259.915 1871.86,-254.73 1861.41,-253.022 1862.62,-259.915"/>
</g>
<!-- org_apache_sling_api&#45;&gt;slf4j_api -->
<g id="edge112" class="edge"><title>org_apache_sling_api&#45;&gt;slf4j_api</title>
<path fill="none" stroke="#bdbdbd" d="M824.624,-259.247C837.109,-296.792 867.64,-384.449 888,-408 935.147,-462.538 1011.51,-500.285 1059.13,-520.009"/>
<polygon fill="#bdbdbd" stroke="#bdbdbd" points="1057.96,-523.312 1068.54,-523.828 1060.59,-516.825 1057.96,-523.312"/>
</g>
<!-- org_apache_sling_api&#45;&gt;org_apache_felix_http_jetty -->
<g id="edge110" class="edge"><title>org_apache_sling_api&#45;&gt;org_apache_felix_http_jetty</title>
<path fill="none" stroke="#bdbdbd" d="M874.578,-224.751C879.101,-223.739 883.616,-222.805 888,-222 1037.11,-194.62 1214.08,-179.489 1311.82,-172.621"/>
<polygon fill="#bdbdbd" stroke="#bdbdbd" points="1312.16,-176.106 1321.89,-171.923 1311.67,-169.123 1312.16,-176.106"/>
</g>
<!-- org_apache_sling_commons_classloader&#45;&gt;slf4j_api -->
<g id="edge114" class="edge"><title>org_apache_sling_commons_classloader&#45;&gt;slf4j_api</title>
<path fill="none" stroke="#bdbdbd" d="M1710.17,-259.112C1689.8,-279.111 1653.74,-312.232 1618,-334 1471.3,-423.339 1422.6,-423.79 1261,-482 1212.61,-499.43 1196.8,-499.328 1144.75,-517.911"/>
<polygon fill="#bdbdbd" stroke="#bdbdbd" points="1143.54,-514.626 1135.34,-521.331 1145.94,-521.205 1143.54,-514.626"/>
</g>
<!-- org_apache_felix_eventadmin&#45;&gt;org_apache_felix_metatype -->
<g id="edge116" class="edge"><title>org_apache_felix_eventadmin&#45;&gt;org_apache_felix_metatype</title>
<path fill="none" stroke="#bdbdbd" d="M1954.66,-222.937C1960.08,-214.277 1966.77,-203.573 1972.8,-193.921"/>
<polygon fill="#bdbdbd" stroke="#bdbdbd" points="1975.77,-195.776 1978.1,-185.441 1969.83,-192.066 1975.77,-195.776"/>
</g>
<!-- org_apache_felix_eventadmin&#45;&gt;org_apache_sling_commons_logservice -->
<g id="edge118" class="edge"><title>org_apache_felix_eventadmin&#45;&gt;org_apache_sling_commons_logservice</title>
<path fill="none" stroke="#bdbdbd" d="M1933.88,-222.837C1927.96,-212.393 1920.56,-198.665 1915,-186 1893.8,-137.743 1899.47,-121.194 1876,-74 1871.18,-64.3151 1864.92,-54.3002 1858.96,-45.5646"/>
<polygon fill="#bdbdbd" stroke="#bdbdbd" points="1861.79,-43.4956 1853.18,-37.3151 1856.06,-47.513 1861.79,-43.4956"/>
</g>
<!-- org_apache_felix_eventadmin&#45;&gt;org_apache_felix_configadmin -->
<g id="edge120" class="edge"><title>org_apache_felix_eventadmin&#45;&gt;org_apache_felix_configadmin</title>
<path fill="none" stroke="#bdbdbd" d="M1923.99,-222.945C1911.75,-212.423 1895.84,-198.577 1882,-186 1857.13,-163.397 1829.37,-136.935 1809.94,-118.207"/>
<polygon fill="#bdbdbd" stroke="#bdbdbd" points="1812.29,-115.614 1802.67,-111.186 1807.43,-120.65 1812.29,-115.614"/>
</g>
</g>
</svg>
