<?xml version="1.0" encoding="UTF-8" standalone="no"?>
<!DOCTYPE svg PUBLIC "-//W3C//DTD SVG 1.1//EN"
 "http://www.w3.org/Graphics/SVG/1.1/DTD/svg11.dtd">
<!-- Generated by graphviz version 2.34.0 (20130907.0228)
 -->
<!-- Title: %3 Pages: 1 -->
<svg width="2294pt" height="416pt"
 viewBox="0.00 0.00 2294.30 416.00" xmlns="http://www.w3.org/2000/svg" xmlns:xlink="http://www.w3.org/1999/xlink">
<g id="graph0" class="graph" transform="scale(1 1) rotate(0) translate(4 412)">
<title>%3</title>
<polygon fill="white" stroke="white" points="-4,4 -4,-412 2290.3,-412 2290.3,4 -4,4"/>
<!-- org_liveSense_service_xssRemove -->
<g id="node1" class="node"><title>org_liveSense_service_xssRemove</title>
<polygon fill="yellow" stroke="black" points="849.805,-371 849.805,-407 1042.8,-407 1042.8,-371 849.805,-371"/>
<text text-anchor="middle" x="946.305" y="-396.1" font-family="Arial" font-size="8.00">liveSense :: Service :: XSS Remove</text>
<polyline fill="none" stroke="black" points="849.805,-389 1042.8,-389 "/>
<text text-anchor="middle" x="946.305" y="-378.1" font-family="Arial" font-size="8.00">org.liveSense.service.xssRemove(2&#45;SNAPSHOT)</text>
</g>
<!-- javax_jcr -->
<g id="node2" class="node"><title>javax_jcr</title>
<polygon fill="green" stroke="black" points="759.305,-297 759.305,-333 945.305,-333 945.305,-297 759.305,-297"/>
<text text-anchor="middle" x="852.305" y="-322.1" font-family="Arial" font-size="8.00">Content Repository for JavaTM Technology API</text>
<polyline fill="none" stroke="black" points="759.305,-315 945.305,-315 "/>
<text text-anchor="middle" x="852.305" y="-304.1" font-family="Arial" font-size="8.00">javax.jcr(2.0)</text>
</g>
<!-- org_liveSense_service_xssRemove&#45;&gt;javax_jcr -->
<g id="edge1" class="edge"><title>org_liveSense_service_xssRemove&#45;&gt;javax_jcr</title>
<path fill="none" stroke="yellow" d="M924.028,-370.937C911.709,-361.501 896.222,-349.639 882.795,-339.354"/>
<polygon fill="yellow" stroke="yellow" points="884.814,-336.492 874.747,-333.19 880.558,-342.049 884.814,-336.492"/>
</g>
<!-- org_apache_sling_jcr_api -->
<g id="node3" class="node"><title>org_apache_sling_jcr_api</title>
<polygon fill="green" stroke="black" points="437.305,-297 437.305,-333 583.305,-333 583.305,-297 437.305,-297"/>
<text text-anchor="middle" x="510.305" y="-322.1" font-family="Arial" font-size="8.00">Apache Sling Repository API Bundle</text>
<polyline fill="none" stroke="black" points="437.305,-315 583.305,-315 "/>
<text text-anchor="middle" x="510.305" y="-304.1" font-family="Arial" font-size="8.00">org.apache.sling.jcr.api(2.1.0)</text>
</g>
<!-- org_liveSense_service_xssRemove&#45;&gt;org_apache_sling_jcr_api -->
<g id="edge2" class="edge"><title>org_liveSense_service_xssRemove&#45;&gt;org_apache_sling_jcr_api</title>
<path fill="none" stroke="yellow" d="M849.486,-374.954C780.681,-365.279 685.889,-351.137 593.646,-334.193"/>
<polygon fill="yellow" stroke="yellow" points="594.044,-330.707 583.575,-332.33 592.771,-337.591 594.044,-330.707"/>
</g>
<!-- org_apache_sling_commons_osgi -->
<g id="node4" class="node"><title>org_apache_sling_commons_osgi</title>
<polygon fill="green" stroke="black" points="963.805,-297 963.805,-333 1116.8,-333 1116.8,-297 963.805,-297"/>
<text text-anchor="middle" x="1040.3" y="-322.1" font-family="Arial" font-size="8.00">Apache Sling Commons OSGi support</text>
<polyline fill="none" stroke="black" points="963.805,-315 1116.8,-315 "/>
<text text-anchor="middle" x="1040.3" y="-304.1" font-family="Arial" font-size="8.00">org.apache.sling.commons.osgi(2.2.0)</text>
</g>
<!-- org_liveSense_service_xssRemove&#45;&gt;org_apache_sling_commons_osgi -->
<g id="edge3" class="edge"><title>org_liveSense_service_xssRemove&#45;&gt;org_apache_sling_commons_osgi</title>
<path fill="none" stroke="yellow" d="M968.581,-370.937C980.9,-361.501 996.387,-349.639 1009.81,-339.354"/>
<polygon fill="yellow" stroke="yellow" points="1012.05,-342.049 1017.86,-333.19 1007.8,-336.492 1012.05,-342.049"/>
</g>
<!-- org_apache_felix_scr -->
<g id="node5" class="node"><title>org_apache_felix_scr</title>
<polygon fill="green" stroke="black" points="1135.3,-297 1135.3,-333 1273.3,-333 1273.3,-297 1135.3,-297"/>
<text text-anchor="middle" x="1204.3" y="-322.1" font-family="Arial" font-size="8.00">Apache Felix Declarative Services</text>
<polyline fill="none" stroke="black" points="1135.3,-315 1273.3,-315 "/>
<text text-anchor="middle" x="1204.3" y="-304.1" font-family="Arial" font-size="8.00">org.apache.felix.scr(1.6.2)</text>
</g>
<!-- org_liveSense_service_xssRemove&#45;&gt;org_apache_felix_scr -->
<g id="edge4" class="edge"><title>org_liveSense_service_xssRemove&#45;&gt;org_apache_felix_scr</title>
<path fill="none" stroke="yellow" d="M1007.45,-370.937C1045.22,-360.395 1093.85,-346.823 1133.33,-335.807"/>
<polygon fill="yellow" stroke="yellow" points="1134.46,-339.124 1143.15,-333.065 1132.58,-332.382 1134.46,-339.124"/>
</g>
<!-- org_ops4j_pax_logging_pax_logging_api -->
<g id="node6" class="node"><title>org_ops4j_pax_logging_pax_logging_api</title>
<polygon fill="green" stroke="black" points="1446.8,-297 1446.8,-333 1619.8,-333 1619.8,-297 1446.8,-297"/>
<text text-anchor="middle" x="1533.3" y="-322.1" font-family="Arial" font-size="8.00">OPS4J Pax Logging &#45; API</text>
<polyline fill="none" stroke="black" points="1446.8,-315 1619.8,-315 "/>
<text text-anchor="middle" x="1533.3" y="-304.1" font-family="Arial" font-size="8.00">org.ops4j.pax.logging.pax&#45;logging&#45;api(1.7.0)</text>
</g>
<!-- org_liveSense_service_xssRemove&#45;&gt;org_ops4j_pax_logging_pax_logging_api -->
<g id="edge5" class="edge"><title>org_liveSense_service_xssRemove&#45;&gt;org_ops4j_pax_logging_pax_logging_api</title>
<path fill="none" stroke="yellow" d="M1042.91,-376.151C1151.79,-362.796 1327.76,-341.212 1436.66,-327.854"/>
<polygon fill="yellow" stroke="yellow" points="1437.16,-331.32 1446.66,-326.628 1436.31,-324.372 1437.16,-331.32"/>
</g>
<!-- org_liveSense_core -->
<g id="node7" class="node"><title>org_liveSense_core</title>
<polygon fill="green" stroke="black" points="601.805,-297 601.805,-333 740.805,-333 740.805,-297 601.805,-297"/>
<text text-anchor="middle" x="671.305" y="-322.1" font-family="Arial" font-size="8.00">liveSense :: Core</text>
<polyline fill="none" stroke="black" points="601.805,-315 740.805,-315 "/>
<text text-anchor="middle" x="671.305" y="-304.1" font-family="Arial" font-size="8.00">org.liveSense.core(2&#45;SNAPSHOT)</text>
</g>
<!-- org_liveSense_service_xssRemove&#45;&gt;org_liveSense_core -->
<g id="edge6" class="edge"><title>org_liveSense_service_xssRemove&#45;&gt;org_liveSense_core</title>
<path fill="none" stroke="yellow" d="M881.134,-370.937C840.697,-360.35 788.593,-346.708 746.424,-335.667"/>
<polygon fill="yellow" stroke="yellow" points="747.045,-332.212 736.484,-333.065 745.272,-338.984 747.045,-332.212"/>
</g>
<!-- org_apache_sling_jcr_api&#45;&gt;javax_jcr -->
<g id="edge7" class="edge"><title>org_apache_sling_jcr_api&#45;&gt;javax_jcr</title>
<path fill="none" stroke="green" d="M545.628,-333.079C562.091,-340.524 582.224,-348.269 601.305,-352 661.934,-363.855 679.312,-361.814 740.305,-352 759.928,-348.843 780.77,-342.761 799.087,-336.426"/>
<polygon fill="green" stroke="green" points="800.451,-339.656 808.696,-333.002 798.101,-333.062 800.451,-339.656"/>
</g>
<!-- org_apache_felix_eventadmin -->
<g id="node8" class="node"><title>org_apache_felix_eventadmin</title>
<polygon fill="#3182bd" stroke="black" points="1286.3,-75 1286.3,-111 1426.3,-111 1426.3,-75 1286.3,-75"/>
<text text-anchor="middle" x="1356.3" y="-100.1" font-family="Arial" font-size="8.00">Apache Felix EventAdmin</text>
<polyline fill="none" stroke="black" points="1286.3,-93 1426.3,-93 "/>
<text text-anchor="middle" x="1356.3" y="-82.1" font-family="Arial" font-size="8.00">org.apache.felix.eventadmin(1.3.2)</text>
</g>
<!-- org_apache_sling_commons_osgi&#45;&gt;org_apache_felix_eventadmin -->
<g id="edge8" class="edge"><title>org_apache_sling_commons_osgi&#45;&gt;org_apache_felix_eventadmin</title>
<path fill="none" stroke="green" d="M1063.13,-296.802C1076.55,-286.459 1093.71,-272.847 1108.3,-260 1161.86,-212.867 1163.59,-187.035 1223.3,-148 1244.11,-134.399 1268.9,-123.199 1291.4,-114.593"/>
<polygon fill="green" stroke="green" points="1292.74,-117.831 1300.89,-111.064 1290.3,-111.27 1292.74,-117.831"/>
</g>
<!-- org_apache_felix_scr&#45;&gt;org_ops4j_pax_logging_pax_logging_api -->
<g id="edge12" class="edge"><title>org_apache_felix_scr&#45;&gt;org_ops4j_pax_logging_pax_logging_api</title>
<path fill="none" stroke="green" d="M1273.38,-315C1327.78,-315 1382.19,-315 1436.59,-315"/>
<polygon fill="green" stroke="green" points="1436.75,-318.5 1446.75,-315 1436.75,-311.5 1436.75,-318.5"/>
</g>
<!-- org_apache_karaf_shell_console -->
<g id="node9" class="node"><title>org_apache_karaf_shell_console</title>
<polygon fill="#3182bd" stroke="black" points="1330.3,-223 1330.3,-259 1496.3,-259 1496.3,-223 1330.3,-223"/>
<text text-anchor="middle" x="1413.3" y="-248.1" font-family="Arial" font-size="8.00">Apache Karaf :: Shell :: Console</text>
<polyline fill="none" stroke="black" points="1330.3,-241 1496.3,-241 "/>
<text text-anchor="middle" x="1413.3" y="-230.1" font-family="Arial" font-size="8.00">org.apache.karaf.shell.console(3.0.0.RC1)</text>
</g>
<!-- org_apache_felix_scr&#45;&gt;org_apache_karaf_shell_console -->
<g id="edge9" class="edge"><title>org_apache_felix_scr&#45;&gt;org_apache_karaf_shell_console</title>
<path fill="none" stroke="green" d="M1253.83,-296.937C1283.92,-286.573 1322.5,-273.283 1354.18,-262.37"/>
<polygon fill="green" stroke="green" points="1355.45,-265.631 1363.77,-259.065 1353.17,-259.013 1355.45,-265.631"/>
</g>
<!-- org_apache_felix_configadmin -->
<g id="node17" class="node"><title>org_apache_felix_configadmin</title>
<polygon fill="#9ecae1" stroke="black" points="1045.3,-1 1045.3,-37 1211.3,-37 1211.3,-1 1045.3,-1"/>
<text text-anchor="middle" x="1128.3" y="-26.1" font-family="Arial" font-size="8.00">Apache Felix Configuration Admin Service</text>
<polyline fill="none" stroke="black" points="1045.3,-19 1211.3,-19 "/>
<text text-anchor="middle" x="1128.3" y="-8.1" font-family="Arial" font-size="8.00">org.apache.felix.configadmin(1.6.0)</text>
</g>
<!-- org_apache_felix_scr&#45;&gt;org_apache_felix_configadmin -->
<g id="edge10" class="edge"><title>org_apache_felix_scr&#45;&gt;org_apache_felix_configadmin</title>
<path fill="none" stroke="green" d="M1134.97,-298.067C1131.71,-297.359 1128.47,-296.667 1125.3,-296 1042.91,-278.645 994.623,-323.48 939.305,-260 906.581,-222.448 911.749,-191.888 935.305,-148 963.5,-95.4687 1023.79,-60.8477 1069.53,-41.0133"/>
<polygon fill="green" stroke="green" points="1070.9,-44.232 1078.76,-37.1235 1068.18,-37.7812 1070.9,-44.232"/>
</g>
<!-- org_apache_felix_metatype -->
<g id="node18" class="node"><title>org_apache_felix_metatype</title>
<polygon fill="#9ecae1" stroke="black" points="1290.8,-1 1290.8,-37 1421.8,-37 1421.8,-1 1290.8,-1"/>
<text text-anchor="middle" x="1356.3" y="-26.1" font-family="Arial" font-size="8.00">Apache Felix Metatype Service</text>
<polyline fill="none" stroke="black" points="1290.8,-19 1421.8,-19 "/>
<text text-anchor="middle" x="1356.3" y="-8.1" font-family="Arial" font-size="8.00">org.apache.felix.metatype(1.0.6)</text>
</g>
<!-- org_apache_felix_scr&#45;&gt;org_apache_felix_metatype -->
<g id="edge11" class="edge"><title>org_apache_felix_scr&#45;&gt;org_apache_felix_metatype</title>
<path fill="none" stroke="green" d="M1203.45,-296.826C1202.5,-265.913 1203.26,-199.341 1223.3,-148 1238.11,-110.073 1248.08,-102.343 1277.3,-74 1289.34,-62.3311 1304.16,-51.472 1317.7,-42.5969"/>
<polygon fill="green" stroke="green" points="1319.82,-45.3931 1326.37,-37.0627 1316.06,-39.4924 1319.82,-45.3931"/>
</g>
<!-- org_ops4j_pax_logging_pax_logging_api&#45;&gt;org_apache_felix_eventadmin -->
<g id="edge40" class="edge"><title>org_ops4j_pax_logging_pax_logging_api&#45;&gt;org_apache_felix_eventadmin</title>
<path fill="none" stroke="#9ecae1" d="M1527.54,-296.896C1521.52,-263.997 1512.37,-191.331 1473.3,-148 1460.4,-133.682 1443.04,-123.018 1425.63,-115.13"/>
<polygon fill="#9ecae1" stroke="#9ecae1" points="1426.56,-111.719 1415.99,-111.027 1423.82,-118.161 1426.56,-111.719"/>
</g>
<!-- org_liveSense_core&#45;&gt;javax_jcr -->
<g id="edge13" class="edge"><title>org_liveSense_core&#45;&gt;javax_jcr</title>
<path fill="none" stroke="green" d="M740.947,-315C743.612,-315 746.276,-315 748.94,-315"/>
<polygon fill="green" stroke="green" points="749.217,-318.5 759.217,-315 749.217,-311.5 749.217,-318.5"/>
</g>
<!-- org_liveSense_core&#45;&gt;org_apache_sling_commons_osgi -->
<g id="edge15" class="edge"><title>org_liveSense_core&#45;&gt;org_apache_sling_commons_osgi</title>
<path fill="none" stroke="green" d="M705.4,-333.075C721.308,-340.519 740.784,-348.265 759.305,-352 840.34,-368.343 864.059,-367.263 945.305,-352 961.572,-348.944 978.632,-343.183 993.734,-337.102"/>
<polygon fill="green" stroke="green" points="995.47,-340.17 1003.35,-333.084 992.771,-333.711 995.47,-340.17"/>
</g>
<!-- org_liveSense_core&#45;&gt;org_apache_felix_scr -->
<g id="edge19" class="edge"><title>org_liveSense_core&#45;&gt;org_apache_felix_scr</title>
<path fill="none" stroke="green" d="M705.4,-333.075C721.308,-340.519 740.784,-348.265 759.305,-352 837.072,-367.684 1038.54,-367.684 1116.3,-352 1131.35,-348.965 1147.03,-343.283 1160.92,-337.266"/>
<polygon fill="green" stroke="green" points="1162.53,-340.376 1170.21,-333.075 1159.66,-333.995 1162.53,-340.376"/>
</g>
<!-- org_liveSense_core&#45;&gt;org_ops4j_pax_logging_pax_logging_api -->
<g id="edge20" class="edge"><title>org_liveSense_core&#45;&gt;org_ops4j_pax_logging_pax_logging_api</title>
<path fill="none" stroke="green" d="M705.4,-333.075C721.308,-340.519 740.784,-348.265 759.305,-352 871.273,-374.581 1159.37,-360.066 1273.3,-352 1327.66,-348.152 1387.93,-339.832 1436.75,-332.055"/>
<polygon fill="green" stroke="green" points="1437.35,-335.503 1446.67,-330.457 1436.24,-328.592 1437.35,-335.503"/>
</g>
<!-- org_apache_sling_api -->
<g id="node10" class="node"><title>org_apache_sling_api</title>
<polygon fill="#3182bd" stroke="black" points="523.805,-223 523.805,-259 634.805,-259 634.805,-223 523.805,-223"/>
<text text-anchor="middle" x="579.305" y="-248.1" font-family="Arial" font-size="8.00">Apache Sling API</text>
<polyline fill="none" stroke="black" points="523.805,-241 634.805,-241 "/>
<text text-anchor="middle" x="579.305" y="-230.1" font-family="Arial" font-size="8.00">org.apache.sling.api(2.4.2)</text>
</g>
<!-- org_liveSense_core&#45;&gt;org_apache_sling_api -->
<g id="edge14" class="edge"><title>org_liveSense_core&#45;&gt;org_apache_sling_api</title>
<path fill="none" stroke="green" d="M649.502,-296.937C637.445,-287.501 622.288,-275.639 609.146,-265.354"/>
<polygon fill="green" stroke="green" points="611.302,-262.597 601.27,-259.19 606.988,-268.109 611.302,-262.597"/>
</g>
<!-- org_apache_geronimo_specs_geronimo_servlet_3_0_spec -->
<g id="node11" class="node"><title>org_apache_geronimo_specs_geronimo_servlet_3_0_spec</title>
<polygon fill="#3182bd" stroke="black" points="150.305,-149 150.305,-185 380.305,-185 380.305,-149 150.305,-149"/>
<text text-anchor="middle" x="265.305" y="-174.1" font-family="Arial" font-size="8.00">Servlet 3.0</text>
<polyline fill="none" stroke="black" points="150.305,-167 380.305,-167 "/>
<text text-anchor="middle" x="265.305" y="-156.1" font-family="Arial" font-size="8.00">org.apache.geronimo.specs.geronimo&#45;servlet_3.0_spec(1.0)</text>
</g>
<!-- org_liveSense_core&#45;&gt;org_apache_geronimo_specs_geronimo_servlet_3_0_spec -->
<g id="edge16" class="edge"><title>org_liveSense_core&#45;&gt;org_apache_geronimo_specs_geronimo_servlet_3_0_spec</title>
<path fill="none" stroke="green" d="M601.633,-297.482C598.488,-296.94 595.368,-296.441 592.305,-296 528.506,-286.81 57.4463,-306.971 13.3048,-260 -33.2523,-210.458 55.2155,-187.502 139.863,-176.921"/>
<polygon fill="green" stroke="green" points="140.378,-180.384 149.891,-175.721 139.547,-173.434 140.378,-180.384"/>
</g>
<!-- org_apache_commons_lang -->
<g id="node12" class="node"><title>org_apache_commons_lang</title>
<polygon fill="#3182bd" stroke="black" points="22.8048,-223 22.8048,-259 149.805,-259 149.805,-223 22.8048,-223"/>
<text text-anchor="middle" x="86.3048" y="-248.1" font-family="Arial" font-size="8.00">Commons Lang</text>
<polyline fill="none" stroke="black" points="22.8048,-241 149.805,-241 "/>
<text text-anchor="middle" x="86.3048" y="-230.1" font-family="Arial" font-size="8.00">org.apache.commons.lang(2.6)</text>
</g>
<!-- org_liveSense_core&#45;&gt;org_apache_commons_lang -->
<g id="edge17" class="edge"><title>org_liveSense_core&#45;&gt;org_apache_commons_lang</title>
<path fill="none" stroke="green" d="M601.621,-297.561C598.479,-296.997 595.363,-296.473 592.305,-296 404.295,-266.933 351.073,-290.732 160.261,-260.184"/>
<polygon fill="green" stroke="green" points="160.615,-256.695 150.182,-258.541 159.489,-263.604 160.615,-256.695"/>
</g>
<!-- org_apache_commons_beanutils -->
<g id="node13" class="node"><title>org_apache_commons_beanutils</title>
<polygon fill="#3182bd" stroke="black" points="948.805,-223 948.805,-259 1099.8,-259 1099.8,-223 948.805,-223"/>
<text text-anchor="middle" x="1024.3" y="-248.1" font-family="Arial" font-size="8.00">Commons BeanUtils</text>
<polyline fill="none" stroke="black" points="948.805,-241 1099.8,-241 "/>
<text text-anchor="middle" x="1024.3" y="-230.1" font-family="Arial" font-size="8.00">org.apache.commons.beanutils(1.8.3)</text>
</g>
<!-- org_liveSense_core&#45;&gt;org_apache_commons_beanutils -->
<g id="edge18" class="edge"><title>org_liveSense_core&#45;&gt;org_apache_commons_beanutils</title>
<path fill="none" stroke="green" d="M741.067,-297.988C744.187,-297.308 747.278,-296.643 750.305,-296 813.258,-282.628 884.593,-268.605 938.692,-258.201"/>
<polygon fill="green" stroke="green" points="939.427,-261.624 948.587,-256.302 938.107,-254.75 939.427,-261.624"/>
</g>
<!-- org_apache_servicemix_bundles_guava -->
<g id="node14" class="node"><title>org_apache_servicemix_bundles_guava</title>
<polygon fill="#3182bd" stroke="black" points="167.805,-223 167.805,-259 352.805,-259 352.805,-223 167.805,-223"/>
<text text-anchor="middle" x="260.305" y="-248.1" font-family="Arial" font-size="8.00">Apache ServiceMix :: Bundles :: guava</text>
<polyline fill="none" stroke="black" points="167.805,-241 352.805,-241 "/>
<text text-anchor="middle" x="260.305" y="-230.1" font-family="Arial" font-size="8.00">org.apache.servicemix.bundles.guava(11.0.0.1)</text>
</g>
<!-- org_liveSense_core&#45;&gt;org_apache_servicemix_bundles_guava -->
<g id="edge21" class="edge"><title>org_liveSense_core&#45;&gt;org_apache_servicemix_bundles_guava</title>
<path fill="none" stroke="green" d="M601.573,-297.836C598.445,-297.198 595.344,-296.582 592.305,-296 493.444,-277.058 465.519,-277.094 363.171,-260.286"/>
<polygon fill="green" stroke="green" points="363.467,-256.788 353.029,-258.606 362.323,-263.694 363.467,-256.788"/>
</g>
<!-- net_entropysoft_transmorph -->
<g id="node15" class="node"><title>net_entropysoft_transmorph</title>
<polygon fill="#3182bd" stroke="black" points="370.805,-223 370.805,-259 505.805,-259 505.805,-223 370.805,-223"/>
<text text-anchor="middle" x="438.305" y="-248.1" font-family="Arial" font-size="8.00">Transmorph</text>
<polyline fill="none" stroke="black" points="370.805,-241 505.805,-241 "/>
<text text-anchor="middle" x="438.305" y="-230.1" font-family="Arial" font-size="8.00">net.entropysoft.transmorph(3.1.1)</text>
</g>
<!-- org_liveSense_core&#45;&gt;net_entropysoft_transmorph -->
<g id="edge22" class="edge"><title>org_liveSense_core&#45;&gt;net_entropysoft_transmorph</title>
<path fill="none" stroke="green" d="M616.087,-296.937C582.26,-286.484 538.796,-273.053 503.312,-262.088"/>
<polygon fill="green" stroke="green" points="504.117,-258.674 493.529,-259.065 502.05,-265.362 504.117,-258.674"/>
</g>
<!-- org_apache_jackrabbit_jackrabbit_jcr_commons -->
<g id="node16" class="node"><title>org_apache_jackrabbit_jackrabbit_jcr_commons</title>
<polygon fill="#3182bd" stroke="black" points="652.805,-223 652.805,-259 853.805,-259 853.805,-223 652.805,-223"/>
<text text-anchor="middle" x="753.305" y="-248.1" font-family="Arial" font-size="8.00">Jackrabbit JCR Commons</text>
<polyline fill="none" stroke="black" points="652.805,-241 853.805,-241 "/>
<text text-anchor="middle" x="753.305" y="-230.1" font-family="Arial" font-size="8.00">org.apache.jackrabbit.jackrabbit&#45;jcr&#45;commons(2.4.2)</text>
</g>
<!-- org_liveSense_core&#45;&gt;org_apache_jackrabbit_jackrabbit_jcr_commons -->
<g id="edge23" class="edge"><title>org_liveSense_core&#45;&gt;org_apache_jackrabbit_jackrabbit_jcr_commons</title>
<path fill="none" stroke="green" d="M690.738,-296.937C701.281,-287.679 714.485,-276.086 726.042,-265.938"/>
<polygon fill="green" stroke="green" points="728.522,-268.418 733.727,-259.19 723.904,-263.158 728.522,-268.418"/>
</g>
<!-- org_apache_felix_eventadmin&#45;&gt;org_ops4j_pax_logging_pax_logging_api -->
<g id="edge24" class="edge"><title>org_apache_felix_eventadmin&#45;&gt;org_ops4j_pax_logging_pax_logging_api</title>
<path fill="none" stroke="#3182bd" d="M1426.35,-108.593C1449.91,-116.784 1474.41,-129.262 1491.3,-148 1526.7,-187.269 1537.54,-250.63 1537.96,-286.652"/>
<polygon fill="#3182bd" stroke="#3182bd" points="1534.45,-286.834 1537.77,-296.896 1541.45,-286.962 1534.45,-286.834"/>
</g>
<!-- org_apache_felix_eventadmin&#45;&gt;org_apache_felix_configadmin -->
<g id="edge25" class="edge"><title>org_apache_felix_eventadmin&#45;&gt;org_apache_felix_configadmin</title>
<path fill="none" stroke="#3182bd" d="M1302.27,-74.937C1269.17,-64.484 1226.64,-51.0532 1191.92,-40.088"/>
<polygon fill="#3182bd" stroke="#3182bd" points="1192.93,-36.739 1182.34,-37.0651 1190.83,-43.4141 1192.93,-36.739"/>
</g>
<!-- org_apache_felix_eventadmin&#45;&gt;org_apache_felix_metatype -->
<g id="edge26" class="edge"><title>org_apache_felix_eventadmin&#45;&gt;org_apache_felix_metatype</title>
<path fill="none" stroke="#3182bd" d="M1356.3,-74.937C1356.3,-66.8072 1356.3,-56.8761 1356.3,-47.7047"/>
<polygon fill="#3182bd" stroke="#3182bd" points="1359.8,-47.4406 1356.3,-37.4407 1352.8,-47.4407 1359.8,-47.4406"/>
</g>
<!-- org_apache_karaf_shell_console&#45;&gt;org_ops4j_pax_logging_pax_logging_api -->
<g id="edge32" class="edge"><title>org_apache_karaf_shell_console&#45;&gt;org_ops4j_pax_logging_pax_logging_api</title>
<path fill="none" stroke="#3182bd" d="M1441.95,-259.19C1458.16,-268.915 1478.62,-281.187 1496.06,-291.652"/>
<polygon fill="#3182bd" stroke="#3182bd" points="1494.49,-294.793 1504.87,-296.937 1498.09,-288.791 1494.49,-294.793"/>
</g>
<!-- org_apache_karaf_shell_console&#45;&gt;org_apache_felix_eventadmin -->
<g id="edge29" class="edge"><title>org_apache_karaf_shell_console&#45;&gt;org_apache_felix_eventadmin</title>
<path fill="none" stroke="#3182bd" d="M1437.24,-222.826C1448.32,-213.369 1460.34,-200.591 1466.3,-186 1472.69,-170.367 1475.24,-162.334 1466.3,-148 1457.55,-133.945 1443.94,-123.444 1429.25,-115.636"/>
<polygon fill="#3182bd" stroke="#3182bd" points="1430.52,-112.36 1420,-111.115 1427.45,-118.649 1430.52,-112.36"/>
</g>
<!-- org_apache_aries_blueprint_api -->
<g id="node19" class="node"><title>org_apache_aries_blueprint_api</title>
<polygon fill="#9ecae1" stroke="black" points="1444.8,-75 1444.8,-111 1589.8,-111 1589.8,-75 1444.8,-75"/>
<text text-anchor="middle" x="1517.3" y="-100.1" font-family="Arial" font-size="8.00">Apache Aries Blueprint API</text>
<polyline fill="none" stroke="black" points="1444.8,-93 1589.8,-93 "/>
<text text-anchor="middle" x="1517.3" y="-82.1" font-family="Arial" font-size="8.00">org.apache.aries.blueprint.api(1.0.0)</text>
</g>
<!-- org_apache_karaf_shell_console&#45;&gt;org_apache_aries_blueprint_api -->
<g id="edge27" class="edge"><title>org_apache_karaf_shell_console&#45;&gt;org_apache_aries_blueprint_api</title>
<path fill="none" stroke="#3182bd" d="M1441.87,-222.913C1455.64,-213.478 1471.47,-200.694 1482.3,-186 1496.66,-166.527 1505.84,-140.459 1511.18,-121.044"/>
<polygon fill="#3182bd" stroke="#3182bd" points="1514.58,-121.855 1513.69,-111.297 1507.81,-120.105 1514.58,-121.855"/>
</g>
<!-- jline -->
<g id="node20" class="node"><title>jline</title>
<polygon fill="#9ecae1" stroke="black" points="1232.3,-149 1232.3,-185 1286.3,-185 1286.3,-149 1232.3,-149"/>
<text text-anchor="middle" x="1259.3" y="-174.1" font-family="Arial" font-size="8.00">JLine</text>
<polyline fill="none" stroke="black" points="1232.3,-167 1286.3,-167 "/>
<text text-anchor="middle" x="1259.3" y="-156.1" font-family="Arial" font-size="8.00">jline(2.9.0)</text>
</g>
<!-- org_apache_karaf_shell_console&#45;&gt;jline -->
<g id="edge28" class="edge"><title>org_apache_karaf_shell_console&#45;&gt;jline</title>
<path fill="none" stroke="#3182bd" d="M1375.15,-222.943C1354.05,-213.418 1327.18,-201.143 1295.81,-186.175"/>
<polygon fill="#3182bd" stroke="#3182bd" points="1296.91,-182.825 1286.38,-181.664 1293.89,-189.139 1296.91,-182.825"/>
</g>
<!-- org_apache_aries_blueprint_core -->
<g id="node21" class="node"><title>org_apache_aries_blueprint_core</title>
<polygon fill="#9ecae1" stroke="black" points="1646.3,-149 1646.3,-185 1796.3,-185 1796.3,-149 1646.3,-149"/>
<text text-anchor="middle" x="1721.3" y="-174.1" font-family="Arial" font-size="8.00">Apache Aries Blueprint Core</text>
<polyline fill="none" stroke="black" points="1646.3,-167 1796.3,-167 "/>
<text text-anchor="middle" x="1721.3" y="-156.1" font-family="Arial" font-size="8.00">org.apache.aries.blueprint.core(1.1.0)</text>
</g>
<!-- org_apache_karaf_shell_console&#45;&gt;org_apache_aries_blueprint_core -->
<g id="edge30" class="edge"><title>org_apache_karaf_shell_console&#45;&gt;org_apache_aries_blueprint_core</title>
<path fill="none" stroke="#3182bd" d="M1486.3,-222.937C1532.05,-212.241 1591.14,-198.428 1638.62,-187.328"/>
<polygon fill="#3182bd" stroke="#3182bd" points="1639.63,-190.687 1648.57,-185.003 1638.04,-183.871 1639.63,-190.687"/>
</g>
<!-- org_apache_sshd_core -->
<g id="node22" class="node"><title>org_apache_sshd_core</title>
<polygon fill="#9ecae1" stroke="black" points="2072.8,-149 2072.8,-185 2189.8,-185 2189.8,-149 2072.8,-149"/>
<text text-anchor="middle" x="2131.3" y="-174.1" font-family="Arial" font-size="8.00">Apache Mina SSHD :: Core</text>
<polyline fill="none" stroke="black" points="2072.8,-167 2189.8,-167 "/>
<text text-anchor="middle" x="2131.3" y="-156.1" font-family="Arial" font-size="8.00">org.apache.sshd.core(0.8.0)</text>
</g>
<!-- org_apache_karaf_shell_console&#45;&gt;org_apache_sshd_core -->
<g id="edge31" class="edge"><title>org_apache_karaf_shell_console&#45;&gt;org_apache_sshd_core</title>
<path fill="none" stroke="#3182bd" d="M1496.37,-231.67C1639.56,-217.312 1930.22,-188.165 2062.71,-174.878"/>
<polygon fill="#3182bd" stroke="#3182bd" points="2063.14,-178.353 2072.74,-173.873 2062.44,-171.388 2063.14,-178.353"/>
</g>
<!-- org_apache_karaf_jaas_boot -->
<g id="node23" class="node"><title>org_apache_karaf_jaas_boot</title>
<polygon fill="#9ecae1" stroke="black" points="1304.8,-149 1304.8,-185 1457.8,-185 1457.8,-149 1304.8,-149"/>
<text text-anchor="middle" x="1381.3" y="-174.1" font-family="Arial" font-size="8.00">Apache Karaf :: JAAS :: Boot</text>
<polyline fill="none" stroke="black" points="1304.8,-167 1457.8,-167 "/>
<text text-anchor="middle" x="1381.3" y="-156.1" font-family="Arial" font-size="8.00">org.apache.karaf.jaas.boot(3.0.0.RC1)</text>
</g>
<!-- org_apache_karaf_shell_console&#45;&gt;org_apache_karaf_jaas_boot -->
<g id="edge33" class="edge"><title>org_apache_karaf_shell_console&#45;&gt;org_apache_karaf_jaas_boot</title>
<path fill="none" stroke="#3182bd" d="M1405.72,-222.937C1401.99,-214.542 1397.41,-204.227 1393.22,-194.81"/>
<polygon fill="#3182bd" stroke="#3182bd" points="1396.32,-193.157 1389.06,-185.441 1389.92,-196 1396.32,-193.157"/>
</g>
<!-- org_apache_sling_api&#45;&gt;org_ops4j_pax_logging_pax_logging_api -->
<g id="edge34" class="edge"><title>org_apache_sling_api&#45;&gt;org_ops4j_pax_logging_pax_logging_api</title>
<path fill="none" stroke="#3182bd" d="M634.99,-258.432C637.79,-259.016 640.572,-259.544 643.305,-260 923.881,-306.784 998.436,-277.826 1282.3,-296 1333.28,-299.264 1390.05,-303.301 1436.69,-306.724"/>
<polygon fill="#3182bd" stroke="#3182bd" points="1436.55,-310.224 1446.78,-307.467 1437.07,-303.243 1436.55,-310.224"/>
</g>
<!-- org_apache_sling_api&#45;&gt;org_apache_geronimo_specs_geronimo_servlet_3_0_spec -->
<g id="edge35" class="edge"><title>org_apache_sling_api&#45;&gt;org_apache_geronimo_specs_geronimo_servlet_3_0_spec</title>
<path fill="none" stroke="#3182bd" d="M523.69,-224.376C520.519,-223.555 517.374,-222.757 514.305,-222 463.284,-209.414 405.994,-196.88 359.241,-187.061"/>
<polygon fill="#3182bd" stroke="#3182bd" points="359.935,-183.63 349.43,-185.008 358.501,-190.482 359.935,-183.63"/>
</g>
<!-- org_apache_commons_beanutils&#45;&gt;org_ops4j_pax_logging_pax_logging_api -->
<g id="edge36" class="edge"><title>org_apache_commons_beanutils&#45;&gt;org_ops4j_pax_logging_pax_logging_api</title>
<path fill="none" stroke="#3182bd" d="M1099.86,-257.505C1104.74,-258.385 1109.59,-259.225 1114.3,-260 1224.36,-278.076 1351.52,-293.731 1436.62,-303.464"/>
<polygon fill="#3182bd" stroke="#3182bd" points="1436.45,-306.967 1446.78,-304.621 1437.24,-300.012 1436.45,-306.967"/>
</g>
<!-- org_apache_commons_collections -->
<g id="node24" class="node"><title>org_apache_commons_collections</title>
<polygon fill="#9ecae1" stroke="black" points="944.305,-149 944.305,-185 1100.3,-185 1100.3,-149 944.305,-149"/>
<text text-anchor="middle" x="1022.3" y="-174.1" font-family="Arial" font-size="8.00">Commons Collections</text>
<polyline fill="none" stroke="black" points="944.305,-167 1100.3,-167 "/>
<text text-anchor="middle" x="1022.3" y="-156.1" font-family="Arial" font-size="8.00">org.apache.commons.collections(3.2.1)</text>
</g>
<!-- org_apache_commons_beanutils&#45;&gt;org_apache_commons_collections -->
<g id="edge37" class="edge"><title>org_apache_commons_beanutils&#45;&gt;org_apache_commons_collections</title>
<path fill="none" stroke="#3182bd" d="M1023.83,-222.937C1023.6,-214.807 1023.33,-204.876 1023.07,-195.705"/>
<polygon fill="#3182bd" stroke="#3182bd" points="1026.57,-195.34 1022.79,-185.441 1019.57,-195.534 1026.57,-195.34"/>
</g>
<!-- org_apache_jackrabbit_jackrabbit_jcr_commons&#45;&gt;javax_jcr -->
<g id="edge38" class="edge"><title>org_apache_jackrabbit_jackrabbit_jcr_commons&#45;&gt;javax_jcr</title>
<path fill="none" stroke="#3182bd" d="M776.941,-259.19C789.945,-268.648 806.261,-280.514 820.383,-290.784"/>
<polygon fill="#3182bd" stroke="#3182bd" points="818.697,-293.886 828.843,-296.937 822.814,-288.225 818.697,-293.886"/>
</g>
<!-- org_apache_jackrabbit_jackrabbit_api -->
<g id="node25" class="node"><title>org_apache_jackrabbit_jackrabbit_api</title>
<polygon fill="#9ecae1" stroke="black" points="682.305,-149 682.305,-185 848.305,-185 848.305,-149 682.305,-149"/>
<text text-anchor="middle" x="765.305" y="-174.1" font-family="Arial" font-size="8.00">Apache Jackrabbit API</text>
<polyline fill="none" stroke="black" points="682.305,-167 848.305,-167 "/>
<text text-anchor="middle" x="765.305" y="-156.1" font-family="Arial" font-size="8.00">org.apache.jackrabbit.jackrabbit&#45;api(2.4.2)</text>
</g>
<!-- org_apache_jackrabbit_jackrabbit_jcr_commons&#45;&gt;org_apache_jackrabbit_jackrabbit_api -->
<g id="edge39" class="edge"><title>org_apache_jackrabbit_jackrabbit_jcr_commons&#45;&gt;org_apache_jackrabbit_jackrabbit_api</title>
<path fill="none" stroke="#3182bd" d="M756.149,-222.937C757.518,-214.719 759.195,-204.66 760.737,-195.406"/>
<polygon fill="#3182bd" stroke="#3182bd" points="764.206,-195.88 762.398,-185.441 757.302,-194.729 764.206,-195.88"/>
</g>
<!-- org_apache_felix_configadmin&#45;&gt;org_ops4j_pax_logging_pax_logging_api -->
<g id="edge41" class="edge"><title>org_apache_felix_configadmin&#45;&gt;org_ops4j_pax_logging_pax_logging_api</title>
<path fill="none" stroke="#9ecae1" d="M1135.36,-37.2143C1148.97,-69.0616 1181.28,-138.275 1223.3,-186 1259.37,-226.963 1272.11,-236.355 1321.3,-260 1357.36,-277.333 1399.64,-289.545 1436.91,-297.915"/>
<polygon fill="#9ecae1" stroke="#9ecae1" points="1436.26,-301.355 1446.78,-300.068 1437.76,-294.516 1436.26,-301.355"/>
</g>
<!-- org_apache_felix_metatype&#45;&gt;org_ops4j_pax_logging_pax_logging_api -->
<g id="edge42" class="edge"><title>org_apache_felix_metatype&#45;&gt;org_ops4j_pax_logging_pax_logging_api</title>
<path fill="none" stroke="#9ecae1" d="M1422,-25.5542C1485.94,-32.4836 1576.57,-46.8758 1598.3,-74 1650.15,-138.69 1587.63,-241.387 1553.15,-288.661"/>
<polygon fill="#9ecae1" stroke="#9ecae1" points="1550.24,-286.711 1547.08,-296.821 1555.86,-290.891 1550.24,-286.711"/>
</g>
<!-- org_apache_aries_blueprint_core&#45;&gt;org_ops4j_pax_logging_pax_logging_api -->
<g id="edge46" class="edge"><title>org_apache_aries_blueprint_core&#45;&gt;org_ops4j_pax_logging_pax_logging_api</title>
<path fill="none" stroke="#9ecae1" d="M1707.52,-185.123C1691.06,-204.832 1662.01,-237.386 1632.3,-260 1616.27,-272.207 1597.12,-283.328 1579.96,-292.263"/>
<polygon fill="#9ecae1" stroke="#9ecae1" points="1577.99,-289.34 1570.66,-296.995 1581.16,-295.579 1577.99,-289.34"/>
</g>
<!-- org_apache_aries_blueprint_core&#45;&gt;org_apache_felix_eventadmin -->
<g id="edge45" class="edge"><title>org_apache_aries_blueprint_core&#45;&gt;org_apache_felix_eventadmin</title>
<path fill="none" stroke="#9ecae1" d="M1646.18,-152.609C1590.78,-142.55 1513.33,-128.104 1436.36,-112.185"/>
<polygon fill="#9ecae1" stroke="#9ecae1" points="1436.99,-108.741 1426.49,-110.134 1435.57,-115.595 1436.99,-108.741"/>
</g>
<!-- org_apache_aries_blueprint_core&#45;&gt;org_apache_aries_blueprint_api -->
<g id="edge44" class="edge"><title>org_apache_aries_blueprint_core&#45;&gt;org_apache_aries_blueprint_api</title>
<path fill="none" stroke="#9ecae1" d="M1672.96,-148.937C1643.72,-138.618 1606.26,-125.397 1575.42,-114.511"/>
<polygon fill="#9ecae1" stroke="#9ecae1" points="1576.25,-111.093 1565.66,-111.065 1573.92,-117.694 1576.25,-111.093"/>
</g>
<!-- org_apache_aries_proxy_api -->
<g id="node26" class="node"><title>org_apache_aries_proxy_api</title>
<polygon fill="#deebf7" stroke="black" points="1806.3,-75 1806.3,-111 1940.3,-111 1940.3,-75 1806.3,-75"/>
<text text-anchor="middle" x="1873.3" y="-100.1" font-family="Arial" font-size="8.00">Apache Aries Proxy API</text>
<polyline fill="none" stroke="black" points="1806.3,-93 1940.3,-93 "/>
<text text-anchor="middle" x="1873.3" y="-82.1" font-family="Arial" font-size="8.00">org.apache.aries.proxy.api(1.0.0)</text>
</g>
<!-- org_apache_aries_blueprint_core&#45;&gt;org_apache_aries_proxy_api -->
<g id="edge43" class="edge"><title>org_apache_aries_blueprint_core&#45;&gt;org_apache_aries_proxy_api</title>
<path fill="none" stroke="#9ecae1" d="M1757.33,-148.937C1778.55,-138.886 1805.58,-126.082 1828.2,-115.364"/>
<polygon fill="#9ecae1" stroke="#9ecae1" points="1829.74,-118.509 1837.28,-111.065 1826.74,-112.183 1829.74,-118.509"/>
</g>
<!-- org_apache_aries_util -->
<g id="node27" class="node"><title>org_apache_aries_util</title>
<polygon fill="#deebf7" stroke="black" points="1912.3,-1 1912.3,-37 2024.3,-37 2024.3,-1 1912.3,-1"/>
<text text-anchor="middle" x="1968.3" y="-26.1" font-family="Arial" font-size="8.00">Apache Aries Util</text>
<polyline fill="none" stroke="black" points="1912.3,-19 2024.3,-19 "/>
<text text-anchor="middle" x="1968.3" y="-8.1" font-family="Arial" font-size="8.00">org.apache.aries.util(1.1.0)</text>
</g>
<!-- org_apache_aries_blueprint_core&#45;&gt;org_apache_aries_util -->
<g id="edge47" class="edge"><title>org_apache_aries_blueprint_core&#45;&gt;org_apache_aries_util</title>
<path fill="none" stroke="#9ecae1" d="M1796.43,-156.977C1854.41,-148.463 1928.19,-133.737 1949.3,-112 1965.78,-95.0441 1969.69,-67.7949 1969.98,-47.3446"/>
<polygon fill="#9ecae1" stroke="#9ecae1" points="1973.48,-47.0275 1969.84,-37.0765 1966.48,-47.1236 1973.48,-47.0275"/>
</g>
<!-- org_apache_aries_quiesce_api -->
<g id="node28" class="node"><title>org_apache_aries_quiesce_api</title>
<polygon fill="#deebf7" stroke="black" points="1646.3,-75 1646.3,-111 1788.3,-111 1788.3,-75 1646.3,-75"/>
<text text-anchor="middle" x="1717.3" y="-100.1" font-family="Arial" font-size="8.00">Apache Aries Quiesce API</text>
<polyline fill="none" stroke="black" points="1646.3,-93 1788.3,-93 "/>
<text text-anchor="middle" x="1717.3" y="-82.1" font-family="Arial" font-size="8.00">org.apache.aries.quiesce.api(1.0.0)</text>
</g>
<!-- org_apache_aries_blueprint_core&#45;&gt;org_apache_aries_quiesce_api -->
<g id="edge48" class="edge"><title>org_apache_aries_blueprint_core&#45;&gt;org_apache_aries_quiesce_api</title>
<path fill="none" stroke="#9ecae1" d="M1720.36,-148.937C1719.91,-140.807 1719.35,-130.876 1718.84,-121.705"/>
<polygon fill="#9ecae1" stroke="#9ecae1" points="1722.32,-121.231 1718.27,-111.441 1715.33,-121.619 1722.32,-121.231"/>
</g>
<!-- org_apache_sshd_core&#45;&gt;org_ops4j_pax_logging_pax_logging_api -->
<g id="edge49" class="edge"><title>org_apache_sshd_core&#45;&gt;org_ops4j_pax_logging_pax_logging_api</title>
<path fill="none" stroke="#9ecae1" d="M2123.21,-185.023C2111.96,-206.577 2089.42,-242.952 2058.3,-260 1986.79,-299.184 1760.94,-309.985 1629.93,-312.929"/>
<polygon fill="#9ecae1" stroke="#9ecae1" points="1629.81,-309.43 1619.89,-313.143 1629.96,-316.429 1629.81,-309.43"/>
</g>
<!-- org_apache_mina_core -->
<g id="node29" class="node"><title>org_apache_mina_core</title>
<polygon fill="#deebf7" stroke="black" points="2034.8,-75 2034.8,-111 2151.8,-111 2151.8,-75 2034.8,-75"/>
<text text-anchor="middle" x="2093.3" y="-100.1" font-family="Arial" font-size="8.00">Apache MINA Core</text>
<polyline fill="none" stroke="black" points="2034.8,-93 2151.8,-93 "/>
<text text-anchor="middle" x="2093.3" y="-82.1" font-family="Arial" font-size="8.00">org.apache.mina.core(2.0.7)</text>
</g>
<!-- org_apache_sshd_core&#45;&gt;org_apache_mina_core -->
<g id="edge50" class="edge"><title>org_apache_sshd_core&#45;&gt;org_apache_mina_core</title>
<path fill="none" stroke="#9ecae1" d="M2122.3,-148.937C2117.82,-140.454 2112.31,-130.009 2107.3,-120.513"/>
<polygon fill="#9ecae1" stroke="#9ecae1" points="2110.27,-118.651 2102.51,-111.441 2104.08,-121.918 2110.27,-118.651"/>
</g>
<!-- bcprov -->
<g id="node30" class="node"><title>bcprov</title>
<polygon fill="#deebf7" stroke="black" points="2169.8,-75 2169.8,-111 2230.8,-111 2230.8,-75 2169.8,-75"/>
<text text-anchor="middle" x="2200.3" y="-100.1" font-family="Arial" font-size="8.00">bcprov</text>
<polyline fill="none" stroke="black" points="2169.8,-93 2230.8,-93 "/>
<text text-anchor="middle" x="2200.3" y="-82.1" font-family="Arial" font-size="8.00">bcprov(1.46)</text>
</g>
<!-- org_apache_sshd_core&#45;&gt;bcprov -->
<g id="edge51" class="edge"><title>org_apache_sshd_core&#45;&gt;bcprov</title>
<path fill="none" stroke="#9ecae1" d="M2147.66,-148.937C2156.29,-139.924 2167.05,-128.696 2176.59,-118.744"/>
<polygon fill="#9ecae1" stroke="#9ecae1" points="2179.2,-121.082 2183.59,-111.441 2174.14,-116.239 2179.2,-121.082"/>
</g>
<!-- org_apache_jackrabbit_jackrabbit_api&#45;&gt;javax_jcr -->
<g id="edge52" class="edge"><title>org_apache_jackrabbit_jackrabbit_api&#45;&gt;javax_jcr</title>
<path fill="none" stroke="#9ecae1" d="M818.329,-185.083C835.431,-193.391 852.489,-205.301 862.305,-222 873.883,-241.697 869.512,-267.901 863.338,-287.304"/>
<polygon fill="#9ecae1" stroke="#9ecae1" points="860.028,-286.165 860.02,-296.76 866.634,-288.483 860.028,-286.165"/>
</g>
<!-- org_apache_geronimo_specs_geronimo_jta_1_1_spec -->
<g id="node31" class="node"><title>org_apache_geronimo_specs_geronimo_jta_1_1_spec</title>
<polygon fill="#deebf7" stroke="black" points="654.305,-75 654.305,-111 876.305,-111 876.305,-75 654.305,-75"/>
<text text-anchor="middle" x="765.305" y="-100.1" font-family="Arial" font-size="8.00">geronimo&#45;jta_1.1_spec</text>
<polyline fill="none" stroke="black" points="654.305,-93 876.305,-93 "/>
<text text-anchor="middle" x="765.305" y="-82.1" font-family="Arial" font-size="8.00">org.apache.geronimo.specs.geronimo&#45;jta_1.1_spec(1.1.1)</text>
</g>
<!-- org_apache_jackrabbit_jackrabbit_api&#45;&gt;org_apache_geronimo_specs_geronimo_jta_1_1_spec -->
<g id="edge53" class="edge"><title>org_apache_jackrabbit_jackrabbit_api&#45;&gt;org_apache_geronimo_specs_geronimo_jta_1_1_spec</title>
<path fill="none" stroke="#9ecae1" d="M765.305,-148.937C765.305,-140.807 765.305,-130.876 765.305,-121.705"/>
<polygon fill="#9ecae1" stroke="#9ecae1" points="768.805,-121.441 765.305,-111.441 761.805,-121.441 768.805,-121.441"/>
</g>
<!-- org_apache_aries_proxy_api&#45;&gt;org_apache_aries_util -->
<g id="edge54" class="edge"><title>org_apache_aries_proxy_api&#45;&gt;org_apache_aries_util</title>
<path fill="none" stroke="#deebf7" d="M1895.82,-74.937C1908.27,-65.5012 1923.92,-53.6389 1937.49,-43.3541"/>
<polygon fill="#deebf7" stroke="#deebf7" points="1939.77,-46.0197 1945.62,-37.19 1935.54,-40.4409 1939.77,-46.0197"/>
</g>
<!-- org_apache_aries_util&#45;&gt;org_ops4j_pax_logging_pax_logging_api -->
<g id="edge57" class="edge"><title>org_apache_aries_util&#45;&gt;org_ops4j_pax_logging_pax_logging_api</title>
<path fill="none" stroke="#bdbdbd" d="M1974.46,-37.0733C1980.39,-56.7355 1986.58,-89.246 1972.3,-112 1898.25,-230.084 1735.41,-279.978 1630.23,-300.455"/>
<polygon fill="#bdbdbd" stroke="#bdbdbd" points="1629.41,-297.047 1620.23,-302.346 1630.71,-303.925 1629.41,-297.047"/>
</g>
<!-- org_apache_mina_core&#45;&gt;org_ops4j_pax_logging_pax_logging_api -->
<g id="edge55" class="edge"><title>org_apache_mina_core&#45;&gt;org_ops4j_pax_logging_pax_logging_api</title>
<path fill="none" stroke="#deebf7" d="M2083.37,-111.244C2077.5,-121.717 2070.12,-135.446 2064.3,-148 2041.84,-196.532 2062.77,-227.487 2020.3,-260 1961.1,-305.333 1754.57,-313.901 1630.28,-314.798"/>
<polygon fill="#deebf7" stroke="#deebf7" points="1629.98,-311.3 1620,-314.856 1630.02,-318.3 1629.98,-311.3"/>
</g>
<!-- org_apache_servicemix_bundles_junit -->
<g id="node32" class="node"><title>org_apache_servicemix_bundles_junit</title>
<polygon fill="#bdbdbd" stroke="black" points="2113.8,-1 2113.8,-37 2286.8,-37 2286.8,-1 2113.8,-1"/>
<text text-anchor="middle" x="2200.3" y="-26.1" font-family="Arial" font-size="8.00">Apache ServiceMix :: Bundles :: junit</text>
<polyline fill="none" stroke="black" points="2113.8,-19 2286.8,-19 "/>
<text text-anchor="middle" x="2200.3" y="-8.1" font-family="Arial" font-size="8.00">org.apache.servicemix.bundles.junit(3.8.2.4)</text>
</g>
<!-- bcprov&#45;&gt;org_apache_servicemix_bundles_junit -->
<g id="edge56" class="edge"><title>bcprov&#45;&gt;org_apache_servicemix_bundles_junit</title>
<path fill="none" stroke="#deebf7" d="M2200.3,-74.937C2200.3,-66.8072 2200.3,-56.8761 2200.3,-47.7047"/>
<polygon fill="#deebf7" stroke="#deebf7" points="2203.8,-47.4406 2200.3,-37.4407 2196.8,-47.4407 2203.8,-47.4406"/>
</g>
</g>
</svg>
